<svg xmlns="http://www.w3.org/2000/svg"
     width="445.795"
     height="436.309"
     viewBox="0 0 117.95 115.44">
    <g fill="#fc0"
       transform="rotate(-9.317 -112.773 195.14) scale(.69358)">
        <circle cx="48.672"
                cy="159.06"
                r="24.379" />
        <g stroke="#000"
           stroke-linecap="round"
           stroke-linejoin="round"
           color="#000">
            <path d="M49.431 143.83a12.032 12.032 0 0 1 4.019 3.35 12.014 12.014 0 0 1 1.9 3.608"
                  style="-inkscape-stroke:none"
                  transform="rotate(16.94 49.18 207.9)" />
            <path d="M48.973 142.4a1.5 1.5 0 0 0-.229 2.762 10.553 10.553 0 0 1 3.516 2.931 10.528 10.528 0 0 1 1.664 3.156 1.5 1.5 0 0 0 1.889.963c.788-.255 2.259-.006 2.004-.794-.475-1.463-2.24-3.936-3.178-5.155a13.515 13.515 0 0 0-4.521-3.77 1.5 1.5 0 0 0-1.145-.093z"
                  style="-inkscape-stroke:none"
                  transform="rotate(16.94 49.18 207.9)" />
        </g>
        <g stroke="#000"
           stroke-linecap="round"
           stroke-linejoin="round"
           stroke-width="1.084"
           color="#000">
            <path d="M49.431 143.83a12.032 12.032 0 0 1 4.019 3.35 12.014 12.014 0 0 1 1.9 3.608"
                  style="-inkscape-stroke:none"
                  transform="matrix(-.17338 -.8991 .88432 -.32176 -86.044 264.45)" />
            <path d="M48.973 142.4a1.5 1.5 0 0 0-.875.742 1.5 1.5 0 0 0 .646 2.02 10.553 10.553 0 0 1 3.516 2.931 10.528 10.528 0 0 1 1.664 3.156 1.5 1.5 0 0 0 1.889.963 1.5 1.5 0 0 0 .965-1.888 13.508 13.508 0 0 0-2.139-4.06 13.515 13.515 0 0 0-4.521-3.77 1.5 1.5 0 0 0-1.145-.094z"
                  style="-inkscape-stroke:none"
                  transform="matrix(-.17338 -.8991 .88432 -.32176 -86.044 264.45)" />
            <path d="M49.431 143.83a12.032 12.032 0 0 1 4.019 3.35 12.014 12.014 0 0 1 1.9 3.608"
                  style="-inkscape-stroke:none"
                  transform="matrix(-.17338 -.8991 .88432 -.32176 -84.198 265.722)" />
            <path d="M48.973 142.4a1.5 1.5 0 0 0-.875.742 1.5 1.5 0 0 0 .646 2.02 10.553 10.553 0 0 1 3.516 2.931 10.528 10.528 0 0 1 1.664 3.156 1.5 1.5 0 0 0 1.889.963 1.5 1.5 0 0 0 .965-1.888 13.508 13.508 0 0 0-2.139-4.06 13.515 13.515 0 0 0-4.521-3.77 1.5 1.5 0 0 0-1.145-.094z"
                  style="-inkscape-stroke:none"
                  transform="matrix(-.17338 -.8991 .88432 -.32176 -84.198 265.722)" />
            <path d="M49.431 143.83a12.032 12.032 0 0 1 4.019 3.35 12.014 12.014 0 0 1 1.9 3.608"
                  style="-inkscape-stroke:none"
                  transform="matrix(-.17338 -.8991 .88432 -.32176 -82.187 266.991)" />
            <path d="M48.973 142.4a1.5 1.5 0 0 0-.875.742 1.5 1.5 0 0 0 .646 2.02 10.553 10.553 0 0 1 3.516 2.931 10.528 10.528 0 0 1 1.664 3.156 1.5 1.5 0 0 0 1.889.963 1.5 1.5 0 0 0 .965-1.888 13.508 13.508 0 0 0-2.139-4.06 13.515 13.515 0 0 0-4.521-3.77 1.5 1.5 0 0 0-1.145-.094z"
                  style="-inkscape-stroke:none"
                  transform="matrix(-.17338 -.8991 .88432 -.32176 -82.187 266.991)" />
            <path d="M49.431 143.83a12.032 12.032 0 0 1 4.019 3.35 12.014 12.014 0 0 1 1.9 3.608"
                  style="-inkscape-stroke:none"
                  transform="matrix(-.17338 -.8991 .88432 -.32176 -80.266 268.292)" />
            <path d="M48.973 142.4a1.5 1.5 0 0 0-.875.742 1.5 1.5 0 0 0 .646 2.02 10.553 10.553 0 0 1 3.516 2.931 10.528 10.528 0 0 1 1.664 3.156 1.5 1.5 0 0 0 1.889.963 1.5 1.5 0 0 0 .965-1.888 13.508 13.508 0 0 0-2.139-4.06 13.515 13.515 0 0 0-4.521-3.77 1.5 1.5 0 0 0-1.145-.094z"
                  style="-inkscape-stroke:none"
                  transform="matrix(-.17338 -.8991 .88432 -.32176 -80.266 268.292)" />
            <path d="M49.431 143.83a12.032 12.032 0 0 1 4.019 3.35 12.014 12.014 0 0 1 1.9 3.608"
                  style="-inkscape-stroke:none"
                  transform="matrix(-.17338 -.8991 .88432 -.32176 -78.234 269.152)" />
            <path d="M48.973 142.4a1.5 1.5 0 0 0-.875.742 1.5 1.5 0 0 0 .646 2.02 10.553 10.553 0 0 1 3.516 2.931 10.528 10.528 0 0 1 1.664 3.156 1.5 1.5 0 0 0 1.889.963 1.5 1.5 0 0 0 .965-1.888 13.508 13.508 0 0 0-2.139-4.06 13.515 13.515 0 0 0-4.521-3.77 1.5 1.5 0 0 0-1.145-.094z"
                  style="-inkscape-stroke:none"
                  transform="matrix(-.17338 -.8991 .88432 -.32176 -78.234 269.152)" />
        </g>
        <g stroke="#000"
           stroke-linecap="round"
           stroke-linejoin="round"
           stroke-width="1.084"
           color="#000">
            <path d="M49.431 143.83a12.032 12.032 0 0 1 4.019 3.35 12.014 12.014 0 0 1 1.9 3.608"
                  style="-inkscape-stroke:none"
                  transform="matrix(-.89715 -.18321 .04044 -.94018 82.14 316.695)" />
            <path d="M48.973 142.4a1.5 1.5 0 0 0-.875.742 1.5 1.5 0 0 0 .646 2.02 10.553 10.553 0 0 1 3.516 2.931 10.528 10.528 0 0 1 1.664 3.156 1.5 1.5 0 0 0 1.889.963 1.5 1.5 0 0 0 .965-1.888 13.508 13.508 0 0 0-2.139-4.06 13.515 13.515 0 0 0-4.521-3.77 1.5 1.5 0 0 0-1.145-.094z"
                  style="-inkscape-stroke:none"
                  transform="matrix(-.89715 -.18321 .04044 -.94018 82.14 316.695)" />
            <path d="M49.431 143.83a12.032 12.032 0 0 1 4.019 3.35 12.014 12.014 0 0 1 1.9 3.608"
                  style="-inkscape-stroke:none"
                  transform="matrix(-.89715 -.18321 .04044 -.94018 84.02 315.474)" />
            <path d="M48.973 142.4a1.5 1.5 0 0 0-.875.742 1.5 1.5 0 0 0 .646 2.02 10.553 10.553 0 0 1 3.516 2.931 10.528 10.528 0 0 1 1.664 3.156 1.5 1.5 0 0 0 1.889.963 1.5 1.5 0 0 0 .965-1.888 13.508 13.508 0 0 0-2.139-4.06 13.515 13.515 0 0 0-4.521-3.77 1.5 1.5 0 0 0-1.145-.094z"
                  style="-inkscape-stroke:none"
                  transform="matrix(-.89715 -.18321 .04044 -.94018 84.02 315.474)" />
            <path d="M49.431 143.83a12.032 12.032 0 0 1 4.019 3.35 12.014 12.014 0 0 1 1.9 3.608"
                  style="-inkscape-stroke:none"
                  transform="matrix(-.89715 -.18321 .04044 -.94018 85.962 314.1)" />
            <path d="M48.973 142.4a1.5 1.5 0 0 0-.875.742 1.5 1.5 0 0 0 .646 2.02 10.553 10.553 0 0 1 3.516 2.931 10.528 10.528 0 0 1 1.664 3.156 1.5 1.5 0 0 0 1.889.963 1.5 1.5 0 0 0 .965-1.888 13.508 13.508 0 0 0-2.139-4.06 13.515 13.515 0 0 0-4.521-3.77 1.5 1.5 0 0 0-1.145-.094z"
                  style="-inkscape-stroke:none"
                  transform="matrix(-.89715 -.18321 .04044 -.94018 85.962 314.1)" />
            <path d="M49.431 143.83a12.032 12.032 0 0 1 4.019 3.35 12.014 12.014 0 0 1 1.9 3.608"
                  style="-inkscape-stroke:none"
                  transform="matrix(-.89715 -.18321 .04044 -.94018 87.898 312.822)" />
            <path d="M48.973 142.4a1.5 1.5 0 0 0-.875.742 1.5 1.5 0 0 0 .646 2.02 10.553 10.553 0 0 1 3.516 2.931 10.528 10.528 0 0 1 1.664 3.156 1.5 1.5 0 0 0 1.889.963 1.5 1.5 0 0 0 .965-1.888 13.508 13.508 0 0 0-2.139-4.06 13.515 13.515 0 0 0-4.521-3.77 1.5 1.5 0 0 0-1.145-.094z"
                  style="-inkscape-stroke:none"
                  transform="matrix(-.89715 -.18321 .04044 -.94018 87.898 312.822)" />
            <path d="M49.431 143.83a12.032 12.032 0 0 1 4.019 3.35 12.014 12.014 0 0 1 1.9 3.608"
                  style="-inkscape-stroke:none"
                  transform="matrix(-.89715 -.18321 .04044 -.94018 89.469 311.273)" />
            <path d="M48.973 142.4a1.5 1.5 0 0 0-.875.742 1.5 1.5 0 0 0 .646 2.02 10.553 10.553 0 0 1 3.516 2.931 10.528 10.528 0 0 1 1.664 3.156 1.5 1.5 0 0 0 1.889.963 1.5 1.5 0 0 0 .965-1.888 13.508 13.508 0 0 0-2.139-4.06 13.515 13.515 0 0 0-4.521-3.77 1.5 1.5 0 0 0-1.145-.094z"
                  style="-inkscape-stroke:none"
                  transform="matrix(-.89715 -.18321 .04044 -.94018 89.469 311.273)" />
        </g>
        <path stroke="#000"
              stroke-linecap="round"
              stroke-linejoin="round"
              stroke-width=".675"
              d="M51.054 143.61s-3.508.937-2.31 1.555c10.491-2.4 1.924 8.27 7.069 7.051a1.5 1.5 0 0 0 .965-1.889c-.476-1.463.719-4.715-.22-5.935z"
              color="#000"
              style="-inkscape-stroke:none"
              transform="matrix(-1.7885 -.6351 -1.2185 -1.6587 311.88 454.02)" />
        <path stroke="#000"
              stroke-linecap="round"
              stroke-linejoin="round"
              stroke-width=".675"
              d="M48.744 145.16c1.365.702 5.115-.424 5.338 1.834.146 1.48-.527 3.119-.158 4.254.256.787-.413 2.205.374 1.95.788-.256.654-.697 1.775-2.48-.475-1.464.672-4.337-.266-5.556-.447-1.415-7.913-.44-7.063-.002z"
              color="#000"
              style="-inkscape-stroke:none"
              transform="matrix(-1.7885 -.6351 -1.2185 -1.6587 309.31 454.63)" />
        <path stroke="#000"
              stroke-linecap="round"
              stroke-linejoin="round"
              stroke-width=".675"
              d="M48.488 144.76c.139.256-.022.258.256.401 1.365.702 5.54-.702 6.476.514.728.946-.907 3.71-.539 4.846.256.787.344 1.946 1.131 1.691a1.5 1.5 0 0 0 .965-1.889c-.475-1.463.834-4.51-.01-5.954-1.017-1.74-2.243-2.296-6.945-.996-.16.104-.9.549-1.334 1.387z"
              color="#000"
              style="-inkscape-stroke:none"
              transform="matrix(-1.7885 -.6351 -1.2185 -1.6587 313.99 451.82)" />
        <g stroke="#000"
           stroke-linecap="round"
           stroke-linejoin="round"
           color="#000">
            <path d="M49.431 143.83a12.032 12.032 0 0 1 4.019 3.35 12.014 12.014 0 0 1 1.9 3.608"
                  style="-inkscape-stroke:none"
                  transform="rotate(83.771 57.78 151.61)" />
            <path d="M48.973 142.4a1.5 1.5 0 0 0-.875.742 1.5 1.5 0 0 0 .646 2.02 10.553 10.553 0 0 1 3.516 2.931 10.528 10.528 0 0 1 1.664 3.156 1.5 1.5 0 0 0 1.889.963 1.5 1.5 0 0 0 .965-1.888 13.508 13.508 0 0 0-2.139-4.06 13.515 13.515 0 0 0-4.521-3.77 1.5 1.5 0 0 0-1.145-.094z"
                  style="-inkscape-stroke:none"
                  transform="rotate(83.771 57.78 151.61)" />
            <path d="M49.431 143.83a12.032 12.032 0 0 1 4.019 3.35 12.014 12.014 0 0 1 1.9 3.608"
                  style="-inkscape-stroke:none"
                  transform="rotate(83.771 57.333 153.507)" />
            <path d="M48.973 142.4a1.5 1.5 0 0 0-.875.742 1.5 1.5 0 0 0 .646 2.02 10.553 10.553 0 0 1 3.516 2.931 10.528 10.528 0 0 1 1.664 3.156 1.5 1.5 0 0 0 1.889.963 1.5 1.5 0 0 0 .965-1.888 13.508 13.508 0 0 0-2.139-4.06 13.515 13.515 0 0 0-4.521-3.77 1.5 1.5 0 0 0-1.145-.094z"
                  style="-inkscape-stroke:none"
                  transform="rotate(83.771 57.333 153.507)" />
            <path d="M49.431 143.83a12.032 12.032 0 0 1 4.019 3.35 12.014 12.014 0 0 1 1.9 3.608"
                  style="-inkscape-stroke:none"
                  transform="rotate(83.771 57.776 149.517)" />
            <path d="M48.973 142.4a1.5 1.5 0 0 0-.875.742 1.5 1.5 0 0 0 .646 2.02 10.553 10.553 0 0 1 3.516 2.931 10.528 10.528 0 0 1 1.664 3.156 1.5 1.5 0 0 0 1.889.963 1.5 1.5 0 0 0 .965-1.888 13.508 13.508 0 0 0-2.139-4.06 13.515 13.515 0 0 0-4.521-3.77 1.5 1.5 0 0 0-1.145-.094z"
                  style="-inkscape-stroke:none"
                  transform="rotate(83.771 57.776 149.517)" />
            <path d="M49.431 143.83a12.032 12.032 0 0 1 4.019 3.35 12.014 12.014 0 0 1 1.9 3.608"
                  style="-inkscape-stroke:none"
                  transform="rotate(83.771 57.83 147.477)" />
            <path d="M48.671 141.77c-.751.134-1.395 1.54-1.258 1.882.205.8.595 1.124 1.33 1.504a10.553 10.553 0 0 1 3.516 2.931 10.528 10.528 0 0 1 1.664 3.156 1.5 1.5 0 0 0 2.854-.926 13.508 13.508 0 0 0-2.139-4.06 13.515 13.515 0 0 0-4.521-3.77z"
                  style="-inkscape-stroke:none"
                  transform="rotate(83.771 57.83 147.477)" />
            <path d="M49.431 143.83a12.032 12.032 0 0 1 4.019 3.35 12.014 12.014 0 0 1 1.9 3.608"
                  style="-inkscape-stroke:none"
                  transform="rotate(83.771 57.561 145.564)" />
            <path d="M48.864 142.72a1.5 1.5 0 0 0-.875.742 1.5 1.5 0 0 0 .646 2.02 10.553 10.553 0 0 1 3.516 2.931 10.528 10.528 0 0 1 1.664 3.156 1.5 1.5 0 0 0 1.889.963 1.5 1.5 0 0 0 .965-1.888 13.508 13.508 0 0 0-2.139-4.06 13.515 13.515 0 0 0-4.521-3.77 1.5 1.5 0 0 0-1.145-.094z"
                  style="-inkscape-stroke:none"
                  transform="rotate(83.771 57.561 145.564)" />
        </g>
        <g stroke="#000"
           stroke-linecap="round"
           stroke-linejoin="round"
           color="#000">
            <path d="M49.431 143.83a12.032 12.032 0 0 1 4.019 3.35 12.014 12.014 0 0 1 1.9 3.608"
                  style="-inkscape-stroke:none"
                  transform="translate(-1.272 .39)" />
            <path d="M48.973 142.4a1.5 1.5 0 0 0-.875.742 1.5 1.5 0 0 0 .646 2.02 10.553 10.553 0 0 1 3.516 2.931 10.528 10.528 0 0 1 1.664 3.156 1.5 1.5 0 0 0 1.889.963 1.5 1.5 0 0 0 .965-1.888 13.508 13.508 0 0 0-2.139-4.06 13.515 13.515 0 0 0-4.521-3.77 1.5 1.5 0 0 0-1.145-.094z"
                  style="-inkscape-stroke:none"
                  transform="translate(-1.272 .39)" />
            <path d="M49.431 143.83a12.032 12.032 0 0 1 4.019 3.35 12.014 12.014 0 0 1 1.9 3.608"
                  style="-inkscape-stroke:none"
                  transform="translate(1.013 -.857)" />
            <path d="M48.973 142.4a1.5 1.5 0 0 0-.875.742 1.5 1.5 0 0 0 .646 2.02 10.553 10.553 0 0 1 3.516 2.931 10.528 10.528 0 0 1 1.664 3.156 1.5 1.5 0 0 0 1.889.963 1.5 1.5 0 0 0 .965-1.888 13.508 13.508 0 0 0-2.139-4.06 13.515 13.515 0 0 0-4.521-3.77 1.5 1.5 0 0 0-1.145-.094z"
                  style="-inkscape-stroke:none"
                  transform="translate(1.013 -.857)" />
            <path d="M49.431 143.83a12.032 12.032 0 0 1 4.019 3.35 12.014 12.014 0 0 1 1.9 3.608"
                  style="-inkscape-stroke:none"
                  transform="translate(-3.349 2.259)" />
            <path d="M48.973 142.4a1.5 1.5 0 0 0-.875.742 1.5 1.5 0 0 0 .646 2.02 10.553 10.553 0 0 1 3.516 2.931 10.528 10.528 0 0 1 1.664 3.156 1.5 1.5 0 0 0 1.889.963 1.5 1.5 0 0 0 .965-1.888 13.508 13.508 0 0 0-2.139-4.06 13.515 13.515 0 0 0-4.521-3.77 1.5 1.5 0 0 0-1.145-.094z"
                  style="-inkscape-stroke:none"
                  transform="translate(-3.349 2.259)" />
            <path d="M49.431 143.83a12.032 12.032 0 0 1 4.019 3.35 12.014 12.014 0 0 1 1.9 3.608"
                  style="-inkscape-stroke:none"
                  transform="translate(-5.426 4.024)" />
            <path d="M48.973 142.4a1.5 1.5 0 0 0-.875.742 1.5 1.5 0 0 0 .646 2.02 10.553 10.553 0 0 1 3.516 2.931 10.528 10.528 0 0 1 1.664 3.156 1.5 1.5 0 0 0 1.889.963 1.5 1.5 0 0 0 .965-1.888 13.508 13.508 0 0 0-2.139-4.06 13.515 13.515 0 0 0-4.521-3.77 1.5 1.5 0 0 0-1.145-.094z"
                  style="-inkscape-stroke:none"
                  transform="translate(-5.426 4.024)" />
            <path d="M49.431 143.83a12.032 12.032 0 0 1 4.019 3.35 12.014 12.014 0 0 1 1.9 3.608"
                  style="-inkscape-stroke:none"
                  transform="translate(-7.088 5.997)" />
            <path d="M48.973 142.4a1.5 1.5 0 0 0-.875.742 1.5 1.5 0 0 0 .646 2.02 10.553 10.553 0 0 1 3.516 2.931 10.528 10.528 0 0 1 1.664 3.156 1.5 1.5 0 0 0 1.889.963 1.5 1.5 0 0 0 .965-1.888 13.508 13.508 0 0 0-2.139-4.06 13.515 13.515 0 0 0-4.521-3.77 1.5 1.5 0 0 0-1.145-.094z"
                  style="-inkscape-stroke:none"
                  transform="translate(-7.088 5.997)" />
        </g>
        <g stroke="#000"
           stroke-linecap="round"
           stroke-linejoin="round"
           color="#000">
            <path d="M49.431 143.83a12.032 12.032 0 0 1 4.019 3.35 12.014 12.014 0 0 1 1.9 3.608"
                  style="-inkscape-stroke:none"
                  transform="rotate(-76.593 40.396 150.76)" />
            <path d="M48.973 142.4a1.5 1.5 0 0 0-.875.742 1.5 1.5 0 0 0 .646 2.02 10.553 10.553 0 0 1 3.516 2.931 10.528 10.528 0 0 1 1.664 3.156 1.5 1.5 0 0 0 1.889.963 1.5 1.5 0 0 0 .965-1.888 13.508 13.508 0 0 0-2.139-4.06 13.515 13.515 0 0 0-4.521-3.77 1.5 1.5 0 0 0-1.145-.094z"
                  style="-inkscape-stroke:none"
                  transform="rotate(-76.593 40.396 150.76)" />
        </g>
        <g stroke-linecap="round"
           stroke-linejoin="round"
           color="#000">
            <path stroke="#000"
                  d="M49.949 132.79a13.19 13.19 0 0 0-3.861.566c-2.586.784-4.825 2.332-6.633 4.198-1.803 1.86-3.183 4.02-4.328 6.224-2.29 4.405-3.718 9.005-6.084 12.87-1.257 2.052-3.077 3.704-4.833 5.352-.37.125-.347 1.749.22 2.352a1.5 1.5 0 0 0 2.12.069 30.023 30.023 0 0 0 5.051-6.207c2.629-4.293 4.066-8.969 6.188-13.051 1.06-2.04 2.295-3.95 3.82-5.524 1.52-1.569 3.359-2.808 5.35-3.412a10.19 10.19 0 0 1 2.98-.437c.828.002 1.843-.678 2.275-1.384.802-1.308-.837-1.56-2.265-1.616z"
                  style="-inkscape-stroke:none"
                  transform="translate(-.234 .6)" />
            <path stroke="#000"
                  d="M53.456 130.82c-2.897-.076-6.709.772-9.197 2.258-4.328 2.583-7.44 7.19-9.392 11.44-1.944 4.236-3.394 8.526-5.787 12.075a23.595 23.595 0 0 1-5.097 5.445c-1.411 1.003-1.357 2.898-.233 3.14.51.11 1.16.164 2.069-.767a26.584 26.584 0 0 0 5.748-6.14c2.696-3.999 4.171-8.464 6.025-12.5 1.846-4.021 4.238-7.815 7.727-9.897a12.482 12.482 0 0 1 6.662-1.744 1.5 1.5 0 0 0 1.539-1.459c.022-.828 1.205-1.316-.064-1.851z"
                  style="-inkscape-stroke:none"
                  transform="translate(1.143 3.3)" />
            <path stroke="#000"
                  d="M52.336 128.13a20.475 20.475 0 0 0-11.541 5.697c-3.315 3.282-5.306 7.462-7.035 11.471-1.727 4.004-3.282 7.971-5.684 11.242-1.323 1.802-3.18 3.56-4.96 4.912-.704.534-1.223.538-1.243 1.037-.058 1.476 1.67 2.267 2.37 1.967 2.022-1.521 4.754-4.1 6.251-6.14 2.715-3.697 4.325-7.897 6.022-11.83 1.694-3.929 3.56-7.725 6.388-10.525a17.548 17.548 0 0 1 9.84-4.86c.82-.113 3.321-.942 3.209-1.763-.113-.82-2.797-1.32-3.617-1.207z"
                  style="-inkscape-stroke:none"
                  transform="translate(3.22 6.623)" />
            <path d="M54.664 127.02c-4.784.944-10.549 3.302-13.902 6.843-3.184 3.361-5.148 7.503-6.9 11.486-1.751 3.98-3.214 8.035-5.784 11.188-3.411 4.186-5.475 5.09-5.634 5.613-.455 1.494 1.207 2.637 1.95 2.18 1.874-1.486 4.675-4.086 6.096-6.01 2.716-3.675 4.388-7.836 6.116-11.762 1.725-3.921 3.358-7.797 6.113-10.706 3.656-3.86 8.25-5.593 14.148-7.292.072.165.977-1.097-.56-1.381-.451-.084-.9-.305-1.644-.159z"
                  style="-inkscape-stroke:none"
                  transform="translate(4.673 9.219)" />
            <path fill="#000"
                  d="M54.566 126.53c-4.864.96-10.694 3.322-14.168 6.99-3.254 3.436-5.237 7.636-6.994 11.63-1.76 4-3.218 8.01-5.713 11.071-1.686 2.069-3.028 3.316-3.973 4.115-.472.4-.845.686-1.127.92-.282.235-.511.37-.627.75-.287.944.103 1.816.666 2.334.282.26.61.447.955.537.346.09.735.086 1.07-.12a.5.5 0 0 0 .05-.034c1.906-1.511 4.707-4.103 6.187-6.105 2.765-3.741 4.447-7.942 6.17-11.857 1.727-3.926 3.35-7.745 6.02-10.564 3.562-3.762 8.044-5.461 13.921-7.155h.002c.076-.02.162-.04.2-.066a.803.803 0 0 0 .228-.23c.118-.165.217-.373.252-.641s-.02-.614-.248-.887-.58-.444-1.039-.53c-.354-.065-.958-.33-1.832-.157zm.193.982c.612-.12.908.057 1.455.159.311.057.423.15.456.19.032.038.033.05.025.112-.006.046-.033.096-.055.139-5.874 1.697-10.558 3.46-14.285 7.397-2.84 2.998-4.483 6.933-6.207 10.85-1.732 3.936-3.394 8.057-6.06 11.666-1.355 1.833-4.125 4.416-5.967 5.88-.04.022-.13.045-.283.004a1.328 1.328 0 0 1-.53-.304c-.339-.312-.554-.756-.386-1.307-.036.118.052-.058.308-.271.257-.214.645-.511 1.135-.926.98-.83 2.374-2.128 4.1-4.246 2.643-3.244 4.111-7.344 5.853-11.303 1.749-3.975 3.694-8.057 6.807-11.344 3.233-3.414 8.93-5.767 13.635-6.696zm2.12.563c.15-.003.39.156.447.287a.5.5 0 0 0-.547-.258c.034-.012.034-.028.1-.03z"
                  style="-inkscape-stroke:none"
                  transform="translate(4.673 9.219)" />
        </g>
        <g stroke="#000"
           stroke-linecap="round"
           stroke-linejoin="round"
           stroke-width=".96"
           color="#000">
            <path d="M50.86 142.44a1.51 1.49 28.01 0 0-.813.801 1.51 1.49 28.01 0 0 .817 1.96 10.745 10.745 0 0 1 3.762 2.657 10.629 10.629 0 0 1 1.93 3.015 1.51 1.49 28.01 0 0 1.97.82 1.51 1.49 28.01 0 0 .806-1.948 13.64 13.64 0 0 0-2.48-3.88c-1.341-1.472-3-2.644-4.84-3.415a1.51 1.49 28.01 0 0-1.152-.01z"
                  style="-inkscape-stroke:none"
                  transform="matrix(-.33394 .94862 -1.0315 -.31742 227.264 172.788)" />
            <path d="M52.56 142.53c-.36.148-.64.443-.777.82-.287.784.06-.066.832.284.043.02 4.237 1.929 6.887 8.066.346.8.231.907.98.597.748-.31 1.075-1.21.73-2.012a15.326 15.326 0 0 0-2.595-4.082c-1.38-1.557-3.204-3.139-5.053-3.975-.372-.168-.644.154-1.004.302z"
                  style="-inkscape-stroke:none"
                  transform="matrix(-.33394 .94862 -1.0315 -.31742 227.264 172.788)" />
            <path d="M49.529 142.55a1.52 1.481 25.76 0 0-.745.856 1.52 1.481 25.76 0 0 .98 1.888 10.949 10.949 0 0 1 3.986 2.366 10.762 10.762 0 0 1 2.183 2.856 1.52 1.481 25.76 0 0 2.04.67 1.52 1.481 25.76 0 0 .642-1.994 13.807 13.807 0 0 0-2.807-3.675 14.022 14.022 0 0 0-5.126-3.042 1.52 1.481 25.76 0 0-1.153.075z"
                  style="-inkscape-stroke:none"
                  transform="matrix(-.33394 .94862 -1.0315 -.31742 225.782 170.585)" />
            <path d="M48.839 143.14a1.502 1.498 29.905 0 0-.865.752 1.502 1.498 29.905 0 0 .673 2.01 10.58 10.58 0 0 1 3.557 2.89 10.54 10.54 0 0 1 1.707 3.135 1.502 1.498 29.905 0 0 1.902.94 1.502 1.498 29.905 0 0 .94-1.898 13.527 13.527 0 0 0-6.768-7.749 1.502 1.498 29.905 0 0-1.146-.08z"
                  style="-inkscape-stroke:none"
                  transform="matrix(-.33394 .94862 -1.0315 -.31742 225.782 170.585)" />
        </g>
        <g stroke="#000"
           stroke-linecap="round"
           stroke-linejoin="round"
           color="#000">
            <path d="M52.041 124.78a31.177 31.177 0 0 0-11.383 9.209c-6.233 9.542-10.567 22.624-18.412 27.399-1.12.681.88 4.077 2.147 2.937a30.72 30.72 0 0 0 5.613-5.59c5.54-7.167 8.065-16.422 13.035-22.924a28.223 28.223 0 0 1 10.285-8.32c.748-.355 1.727-1.007 1.372-1.755-.795-.515-1.685-1.259-2.657-.956z"
                  style="-inkscape-stroke:none"
                  transform="rotate(91.892 39.716 156.258)" />
            <path d="M53.461 123.67A33.12 33.12 0 0 0 40.647 134c-4.734 6.357-6.976 13.907-10.838 20.047a31.609 31.609 0 0 1-1.713 2.469 28.799 28.799 0 0 1-4.463 4.617c-.638.527-1.232.68-.705 1.32.528.64 1.978 1.52 2.617.992a31.787 31.787 0 0 0 4.928-5.1c5.519-7.162 7.678-15.968 12.58-22.552A30.173 30.173 0 0 1 54.7 126.4c.754-.343 1.191-.609 1.446-1.397-.416-1.16-1.488-1.767-2.686-1.333z"
                  style="-inkscape-stroke:none"
                  transform="rotate(91.892 37.983 155.463)" />
            <path d="M53.412 123.98a32.02 32.02 0 0 0-12.758 10.012c-5.459 7.207-7.57 16.035-12.559 22.527-1.306 1.7-3.436 4.226-5.09 5.59-1.229.397 1.013 2.243 2.537 1.34a31.427 31.427 0 0 0 4.932-5.104c5.513-7.174 7.623-16.009 12.57-22.54a29.07 29.07 0 0 1 11.559-9.071c.76-.329 1.448-1 1.119-1.761-.33-.76-1.425-1.418-2.31-.993z"
                  style="-inkscape-stroke:none"
                  transform="rotate(91.892 36.503 155.796)" />
            <path d="M54.143 124.04c-.809-.11-.857-.067-1.224.088-5.059 2.13-8.937 5.497-12.263 9.864-5.48 7.197-7.385 16.25-12.37 22.743-5.255 6.845-5.21 5.166-5.478 5.506-.27.34 1.731 2.034 2.733 1.21a31.308 31.308 0 0 0 4.934-5.104c5.51-7.179 7.606-16.023 12.568-22.54a28.729 28.729 0 0 1 11.635-9.013c.762-.321 1.178-1.046.857-1.809-.265-.528-.796-.771-1.392-.945z"
                  style="-inkscape-stroke:none"
                  transform="rotate(91.892 34.833 155.952)" />
            <path d="M52.552 124.69c-4.454 2.115-8.896 5.385-11.894 9.3-5.504 7.185-9.38 15.011-12.527 22.568-.886 2.127-2.339 3.935-3.877 5.476-1.76 1.438 1.758 2.656 2.555 2.001 1.832-1.506 2.222-3.804 3.665-5.686 5.509-7.183 7.59-16.037 12.566-22.535a28.353 28.353 0 0 1 10.287-8.324c.748-.356 2.103-.6 1.748-1.348-.466-.981-.803-2.325-2.524-1.452z"
                  style="-inkscape-stroke:none"
                  transform="rotate(91.892 33.424 156.271)" />
        </g>
        <g stroke="#000"
           stroke-linecap="round"
           stroke-linejoin="round"
           color="#000">
            <path d="M49.431 143.83a12.032 12.032 0 0 1 4.019 3.35 12.014 12.014 0 0 1 1.9 3.608"
                  style="-inkscape-stroke:none"
                  transform="rotate(112.42 58.098 155.164)" />
            <path d="M49.627 142.42c-.352-.185-1.956 1.326-2.138 1.68-.378.736.52.681 1.256 1.06a10.553 10.553 0 0 1 3.515 2.932 10.528 10.528 0 0 1 1.664 3.156 1.5 1.5 0 0 0 2.854-.926 13.508 13.508 0 0 0-2.139-4.06c-1.354-1.715-2.535-2.54-5.012-3.842z"
                  style="-inkscape-stroke:none"
                  transform="rotate(112.42 58.098 155.164)" />
            <path d="M49.431 143.83a12.032 12.032 0 0 1 4.019 3.35 12.014 12.014 0 0 1 1.9 3.608"
                  style="-inkscape-stroke:none"
                  transform="rotate(112.42 57.878 156.894)" />
            <path d="M50.304 142.86c-.507.035-2.167.847-2.273 1.251-.379.737-.023.67.713 1.049a10.553 10.553 0 0 1 3.515 2.931 10.528 10.528 0 0 1 1.664 3.156 1.5 1.5 0 0 0 2.854-.925 13.508 13.508 0 0 0-2.139-4.061c-1.152-1.498-3.306-3.42-4.334-3.401z"
                  style="-inkscape-stroke:none"
                  transform="rotate(112.42 57.878 156.894)" />
        </g>
        <g stroke="#000"
           stroke-linecap="round"
           stroke-linejoin="round"
           color="#000">
            <path stroke-width="1.001"
                  d="M73.837 156.63c-.163-.363-.625-.965-.959-1.183-4.121-2.709-8.57-4.178-13.474-4.697-9.004-.954-17.647 1.899-25.775.992-2.374-.265-4.885-.49-6.943-1.704-2.215-1.307-2.858 2.112-1.083 2.799a30.72 30.72 0 0 0 7.694 1.886c9.003 1.004 17.652-1.853 25.79-.991a28.223 28.223 0 0 1 12.456 4.456c.692.454 1.925 1.564 2.38.872.219-.332.31-1.548.148-1.91z" />
            <path d="M54.607 123.63a1.5 1.5 0 0 0-1.147.04A33.12 33.12 0 0 0 40.646 134c-5.39 7.238-7.55 16.025-12.55 22.515-1.31 1.699-2.395 3.897-4.31 4.863-2.137 1.08.16 3.25 1.759 2.067a31.787 31.787 0 0 0 4.927-5.1c5.52-7.162 7.678-15.969 12.58-22.553A30.173 30.173 0 0 1 54.7 126.4c.754-.343 1.79-.87 1.447-1.623-.164-.362-1.168-1.007-1.54-1.147z"
                  style="-inkscape-stroke:none"
                  transform="rotate(58.654 32.341 158.663)" />
            <path d="M53.412 123.98a32.02 32.02 0 0 0-12.758 10.012c-5.459 7.207-7.57 16.035-12.559 22.527-1.306 1.7-2.892 3.816-4.372 5.366-1.485 1.555.56 2.915 1.82 1.564a31.427 31.427 0 0 0 4.93-5.104c5.514-7.174 7.624-16.009 12.57-22.54a29.07 29.07 0 0 1 11.56-9.071c.76-.329 1.782-.921 1.453-1.682-.329-.76-1.884-1.401-2.645-1.072z"
                  style="-inkscape-stroke:none"
                  transform="rotate(58.654 30.4 159.753)" />
            <path d="M54.662 124.02a1.5 1.5 0 0 0-1.148.008 31.678 31.678 0 0 0-12.857 9.96c-5.481 7.198-7.576 16.037-12.561 22.53-1.305 1.7-2.494 3.685-4.148 5.047-.5.502-1.103.755-1.147 1.089-.09.684 1.857 1.74 3.02.782 1.831-1.507 3.21-3.21 4.653-5.092 5.511-7.179 7.607-16.023 12.568-22.539a28.729 28.729 0 0 1 11.635-9.014c.763-.32 1.797-.286 1.476-1.05-.154-.367-1.123-1.57-1.491-1.721z"
                  style="-inkscape-stroke:none"
                  transform="rotate(58.654 28.118 160.673)" />
            <path d="M53.663 125.31c-4.454 2.115-9.846 5.205-12.844 9.12-5.504 7.185-6.965 15.727-11.945 22.221-1.304 1.7-3.78 4.642-5.434 6.003-.64.525-.536-.05-.01.59s1.696 1.317 2.336.79c1.832-1.506 3.266-3.806 4.709-5.688 5.508-7.183 7.15-16.304 12.127-22.803 2.705-3.531 9.005-6.06 13.023-7.969.928-.858-.48-2.97-1.962-2.265z"
                  style="-inkscape-stroke:none"
                  transform="rotate(58.654 26.27 161.713)" />
        </g>
        <g stroke="#000"
           stroke-linecap="round"
           stroke-linejoin="round"
           color="#000">
            <path d="M50.667 131.58c-1.306-.004-3.143.463-4.74 1.284-2.404 1.234-4.664 2.825-6.472 4.69-1.803 1.861-3.182 4.021-4.328 6.225-2.29 4.405-3.718 9.004-6.084 12.869-1.257 2.053-3.547 3.967-5.302 5.615-.603.567-.178 2.404.388 3.008.567.605 1.818-.282 2.422-.85a30.023 30.023 0 0 0 5.05-6.206c2.63-4.293 4.066-8.969 6.188-13.051 1.06-2.04 2.295-3.95 3.82-5.524 1.521-1.569 3.36-2.809 5.35-3.412a10.19 10.19 0 0 1 2.98-.437c.828.002 3.436-1.957 3.44-2.784-.38-.644-1.609-1.32-2.712-1.427z"
                  style="-inkscape-stroke:none"
                  transform="scale(-1 1) rotate(-71.884 .712 223.991)" />
            <path d="M52.788 130.34c-2.897-.076-6.518 1.47-9.007 2.955-4.327 2.583-6.962 6.97-8.914 11.221-1.945 4.236-3.394 8.526-5.787 12.074-1.395 2.07-4.432 4.36-6.405 5.888-.284.286.073 2.523 1.419 2.332.507.655 1.07.105 1.724-.402a26.584 26.584 0 0 0 5.748-6.14c2.697-3.999 4.172-8.463 6.026-12.5 1.846-4.021 4.238-7.814 7.726-9.897a12.482 12.482 0 0 1 6.662-1.744c2.66-.11 3.184-4.076.808-3.787z"
                  style="-inkscape-stroke:none"
                  transform="scale(-1 1) rotate(-71.884 1.886 221.692)" />
            <path d="M52.779 127.72c-4.335.597-8.875 3.034-11.985 6.113-3.315 3.281-5.305 7.461-7.035 11.47-1.727 4.005-3.282 7.972-5.684 11.243-1.323 1.802-4.273 3.601-6.06 4.945-1.039 1.058 1.484 3.95 3.164 2.207a25.973 25.973 0 0 0 5.314-5.377c2.715-3.697 4.325-7.896 6.022-11.83 1.694-3.928 3.56-7.725 6.388-10.525a17.548 17.548 0 0 1 9.84-4.86c.82-.112 5.037-1.424 4.925-2.244-.084-.605-2.582-1.18-4.89-1.142z"
                  style="-inkscape-stroke:none"
                  transform="scale(-1 1) rotate(-71.884 3.14 218.598)" />
            <path d="M53.626 127.03c-4.867 1.075-9.511 3.297-12.865 6.837-3.184 3.362-5.148 7.503-6.9 11.486-1.751 3.98-3.367 7.917-5.784 11.188-1.263 1.71-3.38 3.708-5.045 5.03-1.859 1.12.928 4.133 1.404 3.73 1.874-1.487 4.632-5.053 6.053-6.977 2.716-3.675 4.388-7.836 6.116-11.762 1.725-3.921 3.579-7.724 6.334-10.633 2.885-3.046 6.884-5.058 11.17-5.98 3.747-.762 6.201.058 5.478-1.18-1.655-2.83-2.792-2.378-5.962-1.74z"
                  style="-inkscape-stroke:none"
                  transform="scale(-1 1) rotate(-71.884 4.203 216.297)" />
        </g>
    </g>
    <g stroke-width="1.653"
       transform="matrix(.31038 -.43831 .43763 .30942 4.036 59.43)">
        <circle cx="48.672"
                cy="159.06"
                r="24.379"
                fill="#d35fbc" />
        <g fill="#de87cd"
           stroke="#000"
           stroke-linecap="round"
           stroke-linejoin="round"
           color="#000">
            <path d="M49.431 143.83a12.032 12.032 0 0 1 4.019 3.35 12.014 12.014 0 0 1 1.9 3.608"
                  style="-inkscape-stroke:none"
                  transform="rotate(16.94 49.18 207.9)" />
            <path d="M48.973 142.4a1.5 1.5 0 0 0-.229 2.762 10.553 10.553 0 0 1 3.516 2.931 10.528 10.528 0 0 1 1.664 3.156 1.5 1.5 0 0 0 1.889.963c.788-.255 2.259-.006 2.004-.794-.475-1.463-2.24-3.936-3.178-5.155a13.515 13.515 0 0 0-4.521-3.77 1.5 1.5 0 0 0-1.145-.093z"
                  style="-inkscape-stroke:none"
                  transform="rotate(16.94 49.18 207.9)" />
        </g>
        <g fill="#de87cd"
           stroke="#000"
           stroke-linecap="round"
           stroke-linejoin="round"
           stroke-width="1.792"
           color="#000">
            <path d="M49.431 143.83a12.032 12.032 0 0 1 4.019 3.35 12.014 12.014 0 0 1 1.9 3.608"
                  style="-inkscape-stroke:none"
                  transform="matrix(-.17338 -.8991 .88432 -.32176 -86.044 264.45)" />
            <path d="M48.973 142.4a1.5 1.5 0 0 0-.875.742 1.5 1.5 0 0 0 .646 2.02 10.553 10.553 0 0 1 3.516 2.931 10.528 10.528 0 0 1 1.664 3.156 1.5 1.5 0 0 0 1.889.963 1.5 1.5 0 0 0 .965-1.888 13.508 13.508 0 0 0-2.139-4.06 13.515 13.515 0 0 0-4.521-3.77 1.5 1.5 0 0 0-1.145-.094z"
                  style="-inkscape-stroke:none"
                  transform="matrix(-.17338 -.8991 .88432 -.32176 -86.044 264.45)" />
            <path d="M49.431 143.83a12.032 12.032 0 0 1 4.019 3.35 12.014 12.014 0 0 1 1.9 3.608"
                  style="-inkscape-stroke:none"
                  transform="matrix(-.17338 -.8991 .88432 -.32176 -84.198 265.722)" />
            <path d="M48.973 142.4a1.5 1.5 0 0 0-.875.742 1.5 1.5 0 0 0 .646 2.02 10.553 10.553 0 0 1 3.516 2.931 10.528 10.528 0 0 1 1.664 3.156 1.5 1.5 0 0 0 1.889.963 1.5 1.5 0 0 0 .965-1.888 13.508 13.508 0 0 0-2.139-4.06 13.515 13.515 0 0 0-4.521-3.77 1.5 1.5 0 0 0-1.145-.094z"
                  style="-inkscape-stroke:none"
                  transform="matrix(-.17338 -.8991 .88432 -.32176 -84.198 265.722)" />
            <path d="M49.431 143.83a12.032 12.032 0 0 1 4.019 3.35 12.014 12.014 0 0 1 1.9 3.608"
                  style="-inkscape-stroke:none"
                  transform="matrix(-.17338 -.8991 .88432 -.32176 -82.187 266.991)" />
            <path d="M48.973 142.4a1.5 1.5 0 0 0-.875.742 1.5 1.5 0 0 0 .646 2.02 10.553 10.553 0 0 1 3.516 2.931 10.528 10.528 0 0 1 1.664 3.156 1.5 1.5 0 0 0 1.889.963 1.5 1.5 0 0 0 .965-1.888 13.508 13.508 0 0 0-2.139-4.06 13.515 13.515 0 0 0-4.521-3.77 1.5 1.5 0 0 0-1.145-.094z"
                  style="-inkscape-stroke:none"
                  transform="matrix(-.17338 -.8991 .88432 -.32176 -82.187 266.991)" />
            <path d="M49.431 143.83a12.032 12.032 0 0 1 4.019 3.35 12.014 12.014 0 0 1 1.9 3.608"
                  style="-inkscape-stroke:none"
                  transform="matrix(-.17338 -.8991 .88432 -.32176 -80.266 268.292)" />
            <path d="M48.973 142.4a1.5 1.5 0 0 0-.875.742 1.5 1.5 0 0 0 .646 2.02 10.553 10.553 0 0 1 3.516 2.931 10.528 10.528 0 0 1 1.664 3.156 1.5 1.5 0 0 0 1.889.963 1.5 1.5 0 0 0 .965-1.888 13.508 13.508 0 0 0-2.139-4.06 13.515 13.515 0 0 0-4.521-3.77 1.5 1.5 0 0 0-1.145-.094z"
                  style="-inkscape-stroke:none"
                  transform="matrix(-.17338 -.8991 .88432 -.32176 -80.266 268.292)" />
            <path d="M49.431 143.83a12.032 12.032 0 0 1 4.019 3.35 12.014 12.014 0 0 1 1.9 3.608"
                  style="-inkscape-stroke:none"
                  transform="matrix(-.17338 -.8991 .88432 -.32176 -78.234 269.152)" />
            <path d="M48.973 142.4a1.5 1.5 0 0 0-.875.742 1.5 1.5 0 0 0 .646 2.02 10.553 10.553 0 0 1 3.516 2.931 10.528 10.528 0 0 1 1.664 3.156 1.5 1.5 0 0 0 1.889.963 1.5 1.5 0 0 0 .965-1.888 13.508 13.508 0 0 0-2.139-4.06 13.515 13.515 0 0 0-4.521-3.77 1.5 1.5 0 0 0-1.145-.094z"
                  style="-inkscape-stroke:none"
                  transform="matrix(-.17338 -.8991 .88432 -.32176 -78.234 269.152)" />
        </g>
        <g fill="#de87cd"
           stroke="#000"
           stroke-linecap="round"
           stroke-linejoin="round"
           stroke-width="1.792"
           color="#000">
            <path d="M49.431 143.83a12.032 12.032 0 0 1 4.019 3.35 12.014 12.014 0 0 1 1.9 3.608"
                  style="-inkscape-stroke:none"
                  transform="matrix(-.89715 -.18321 .04044 -.94018 82.14 316.695)" />
            <path d="M48.973 142.4a1.5 1.5 0 0 0-.875.742 1.5 1.5 0 0 0 .646 2.02 10.553 10.553 0 0 1 3.516 2.931 10.528 10.528 0 0 1 1.664 3.156 1.5 1.5 0 0 0 1.889.963 1.5 1.5 0 0 0 .965-1.888 13.508 13.508 0 0 0-2.139-4.06 13.515 13.515 0 0 0-4.521-3.77 1.5 1.5 0 0 0-1.145-.094z"
                  style="-inkscape-stroke:none"
                  transform="matrix(-.89715 -.18321 .04044 -.94018 82.14 316.695)" />
            <path d="M49.431 143.83a12.032 12.032 0 0 1 4.019 3.35 12.014 12.014 0 0 1 1.9 3.608"
                  style="-inkscape-stroke:none"
                  transform="matrix(-.89715 -.18321 .04044 -.94018 84.02 315.474)" />
            <path d="M48.973 142.4a1.5 1.5 0 0 0-.875.742 1.5 1.5 0 0 0 .646 2.02 10.553 10.553 0 0 1 3.516 2.931 10.528 10.528 0 0 1 1.664 3.156 1.5 1.5 0 0 0 1.889.963 1.5 1.5 0 0 0 .965-1.888 13.508 13.508 0 0 0-2.139-4.06 13.515 13.515 0 0 0-4.521-3.77 1.5 1.5 0 0 0-1.145-.094z"
                  style="-inkscape-stroke:none"
                  transform="matrix(-.89715 -.18321 .04044 -.94018 84.02 315.474)" />
            <path d="M49.431 143.83a12.032 12.032 0 0 1 4.019 3.35 12.014 12.014 0 0 1 1.9 3.608"
                  style="-inkscape-stroke:none"
                  transform="matrix(-.89715 -.18321 .04044 -.94018 85.962 314.1)" />
            <path d="M48.973 142.4a1.5 1.5 0 0 0-.875.742 1.5 1.5 0 0 0 .646 2.02 10.553 10.553 0 0 1 3.516 2.931 10.528 10.528 0 0 1 1.664 3.156 1.5 1.5 0 0 0 1.889.963 1.5 1.5 0 0 0 .965-1.888 13.508 13.508 0 0 0-2.139-4.06 13.515 13.515 0 0 0-4.521-3.77 1.5 1.5 0 0 0-1.145-.094z"
                  style="-inkscape-stroke:none"
                  transform="matrix(-.89715 -.18321 .04044 -.94018 85.962 314.1)" />
            <path d="M49.431 143.83a12.032 12.032 0 0 1 4.019 3.35 12.014 12.014 0 0 1 1.9 3.608"
                  style="-inkscape-stroke:none"
                  transform="matrix(-.89715 -.18321 .04044 -.94018 87.898 312.822)" />
            <path d="M48.973 142.4a1.5 1.5 0 0 0-.875.742 1.5 1.5 0 0 0 .646 2.02 10.553 10.553 0 0 1 3.516 2.931 10.528 10.528 0 0 1 1.664 3.156 1.5 1.5 0 0 0 1.889.963 1.5 1.5 0 0 0 .965-1.888 13.508 13.508 0 0 0-2.139-4.06 13.515 13.515 0 0 0-4.521-3.77 1.5 1.5 0 0 0-1.145-.094z"
                  style="-inkscape-stroke:none"
                  transform="matrix(-.89715 -.18321 .04044 -.94018 87.898 312.822)" />
            <path d="M49.431 143.83a12.032 12.032 0 0 1 4.019 3.35 12.014 12.014 0 0 1 1.9 3.608"
                  style="-inkscape-stroke:none"
                  transform="matrix(-.89715 -.18321 .04044 -.94018 89.469 311.273)" />
            <path d="M48.973 142.4a1.5 1.5 0 0 0-.875.742 1.5 1.5 0 0 0 .646 2.02 10.553 10.553 0 0 1 3.516 2.931 10.528 10.528 0 0 1 1.664 3.156 1.5 1.5 0 0 0 1.889.963 1.5 1.5 0 0 0 .965-1.888 13.508 13.508 0 0 0-2.139-4.06 13.515 13.515 0 0 0-4.521-3.77 1.5 1.5 0 0 0-1.145-.094z"
                  style="-inkscape-stroke:none"
                  transform="matrix(-.89715 -.18321 .04044 -.94018 89.469 311.273)" />
        </g>
        <path fill="#de87cd"
              stroke="#000"
              stroke-linecap="round"
              stroke-linejoin="round"
              stroke-width="1.117"
              d="M51.054 143.61s-3.508.937-2.31 1.555c10.491-2.4 1.924 8.27 7.069 7.051a1.5 1.5 0 0 0 .965-1.889c-.476-1.463.719-4.715-.22-5.935z"
              color="#000"
              style="-inkscape-stroke:none"
              transform="matrix(-1.7885 -.6351 -1.2185 -1.6587 311.88 454.02)" />
        <path fill="#de87cd"
              stroke="#000"
              stroke-linecap="round"
              stroke-linejoin="round"
              stroke-width="1.117"
              d="M48.744 145.16c1.365.702 5.115-.424 5.338 1.834.146 1.48-.527 3.119-.158 4.254.256.787-.413 2.205.374 1.95.788-.256.654-.697 1.775-2.48-.475-1.464.672-4.337-.266-5.556-.447-1.415-7.913-.44-7.063-.002z"
              color="#000"
              style="-inkscape-stroke:none"
              transform="matrix(-1.7885 -.6351 -1.2185 -1.6587 309.31 454.63)" />
        <path fill="#de87cd"
              stroke="#000"
              stroke-linecap="round"
              stroke-linejoin="round"
              stroke-width="1.117"
              d="M48.488 144.76c.139.256-.022.258.256.401 1.365.702 5.54-.702 6.476.514.728.946-.907 3.71-.539 4.846.256.787.344 1.946 1.131 1.691a1.5 1.5 0 0 0 .965-1.889c-.475-1.463.834-4.51-.01-5.954-1.017-1.74-2.243-2.296-6.945-.996-.16.104-.9.549-1.334 1.387z"
              color="#000"
              style="-inkscape-stroke:none"
              transform="matrix(-1.7885 -.6351 -1.2185 -1.6587 313.99 451.82)" />
        <g fill="#de87cd"
           stroke="#000"
           stroke-linecap="round"
           stroke-linejoin="round"
           color="#000">
            <path d="M49.431 143.83a12.032 12.032 0 0 1 4.019 3.35 12.014 12.014 0 0 1 1.9 3.608"
                  style="-inkscape-stroke:none"
                  transform="rotate(83.771 57.78 151.61)" />
            <path d="M48.973 142.4a1.5 1.5 0 0 0-.875.742 1.5 1.5 0 0 0 .646 2.02 10.553 10.553 0 0 1 3.516 2.931 10.528 10.528 0 0 1 1.664 3.156 1.5 1.5 0 0 0 1.889.963 1.5 1.5 0 0 0 .965-1.888 13.508 13.508 0 0 0-2.139-4.06 13.515 13.515 0 0 0-4.521-3.77 1.5 1.5 0 0 0-1.145-.094z"
                  style="-inkscape-stroke:none"
                  transform="rotate(83.771 57.78 151.61)" />
            <path d="M49.431 143.83a12.032 12.032 0 0 1 4.019 3.35 12.014 12.014 0 0 1 1.9 3.608"
                  style="-inkscape-stroke:none"
                  transform="rotate(83.771 57.333 153.507)" />
            <path d="M48.973 142.4a1.5 1.5 0 0 0-.875.742 1.5 1.5 0 0 0 .646 2.02 10.553 10.553 0 0 1 3.516 2.931 10.528 10.528 0 0 1 1.664 3.156 1.5 1.5 0 0 0 1.889.963 1.5 1.5 0 0 0 .965-1.888 13.508 13.508 0 0 0-2.139-4.06 13.515 13.515 0 0 0-4.521-3.77 1.5 1.5 0 0 0-1.145-.094z"
                  style="-inkscape-stroke:none"
                  transform="rotate(83.771 57.333 153.507)" />
            <path d="M49.431 143.83a12.032 12.032 0 0 1 4.019 3.35 12.014 12.014 0 0 1 1.9 3.608"
                  style="-inkscape-stroke:none"
                  transform="rotate(83.771 57.776 149.517)" />
            <path d="M48.973 142.4a1.5 1.5 0 0 0-.875.742 1.5 1.5 0 0 0 .646 2.02 10.553 10.553 0 0 1 3.516 2.931 10.528 10.528 0 0 1 1.664 3.156 1.5 1.5 0 0 0 1.889.963 1.5 1.5 0 0 0 .965-1.888 13.508 13.508 0 0 0-2.139-4.06 13.515 13.515 0 0 0-4.521-3.77 1.5 1.5 0 0 0-1.145-.094z"
                  style="-inkscape-stroke:none"
                  transform="rotate(83.771 57.776 149.517)" />
            <path d="M49.431 143.83a12.032 12.032 0 0 1 4.019 3.35 12.014 12.014 0 0 1 1.9 3.608"
                  style="-inkscape-stroke:none"
                  transform="rotate(83.771 57.83 147.477)" />
            <path d="M48.671 141.77c-.751.134-1.395 1.54-1.258 1.882.205.8.595 1.124 1.33 1.504a10.553 10.553 0 0 1 3.516 2.931 10.528 10.528 0 0 1 1.664 3.156 1.5 1.5 0 0 0 2.854-.926 13.508 13.508 0 0 0-2.139-4.06 13.515 13.515 0 0 0-4.521-3.77z"
                  style="-inkscape-stroke:none"
                  transform="rotate(83.771 57.83 147.477)" />
            <path d="M49.431 143.83a12.032 12.032 0 0 1 4.019 3.35 12.014 12.014 0 0 1 1.9 3.608"
                  style="-inkscape-stroke:none"
                  transform="rotate(83.771 57.561 145.564)" />
            <path d="M48.864 142.72a1.5 1.5 0 0 0-.875.742 1.5 1.5 0 0 0 .646 2.02 10.553 10.553 0 0 1 3.516 2.931 10.528 10.528 0 0 1 1.664 3.156 1.5 1.5 0 0 0 1.889.963 1.5 1.5 0 0 0 .965-1.888 13.508 13.508 0 0 0-2.139-4.06 13.515 13.515 0 0 0-4.521-3.77 1.5 1.5 0 0 0-1.145-.094z"
                  style="-inkscape-stroke:none"
                  transform="rotate(83.771 57.561 145.564)" />
        </g>
        <g fill="#de87cd"
           stroke="#000"
           stroke-linecap="round"
           stroke-linejoin="round"
           color="#000">
            <path d="M49.431 143.83a12.032 12.032 0 0 1 4.019 3.35 12.014 12.014 0 0 1 1.9 3.608"
                  style="-inkscape-stroke:none"
                  transform="translate(-1.272 .39)" />
            <path d="M48.973 142.4a1.5 1.5 0 0 0-.875.742 1.5 1.5 0 0 0 .646 2.02 10.553 10.553 0 0 1 3.516 2.931 10.528 10.528 0 0 1 1.664 3.156 1.5 1.5 0 0 0 1.889.963 1.5 1.5 0 0 0 .965-1.888 13.508 13.508 0 0 0-2.139-4.06 13.515 13.515 0 0 0-4.521-3.77 1.5 1.5 0 0 0-1.145-.094z"
                  style="-inkscape-stroke:none"
                  transform="translate(-1.272 .39)" />
            <path d="M49.431 143.83a12.032 12.032 0 0 1 4.019 3.35 12.014 12.014 0 0 1 1.9 3.608"
                  style="-inkscape-stroke:none"
                  transform="translate(1.013 -.857)" />
            <path d="M48.973 142.4a1.5 1.5 0 0 0-.875.742 1.5 1.5 0 0 0 .646 2.02 10.553 10.553 0 0 1 3.516 2.931 10.528 10.528 0 0 1 1.664 3.156 1.5 1.5 0 0 0 1.889.963 1.5 1.5 0 0 0 .965-1.888 13.508 13.508 0 0 0-2.139-4.06 13.515 13.515 0 0 0-4.521-3.77 1.5 1.5 0 0 0-1.145-.094z"
                  style="-inkscape-stroke:none"
                  transform="translate(1.013 -.857)" />
            <path d="M49.431 143.83a12.032 12.032 0 0 1 4.019 3.35 12.014 12.014 0 0 1 1.9 3.608"
                  style="-inkscape-stroke:none"
                  transform="translate(-3.349 2.259)" />
            <path d="M48.973 142.4a1.5 1.5 0 0 0-.875.742 1.5 1.5 0 0 0 .646 2.02 10.553 10.553 0 0 1 3.516 2.931 10.528 10.528 0 0 1 1.664 3.156 1.5 1.5 0 0 0 1.889.963 1.5 1.5 0 0 0 .965-1.888 13.508 13.508 0 0 0-2.139-4.06 13.515 13.515 0 0 0-4.521-3.77 1.5 1.5 0 0 0-1.145-.094z"
                  style="-inkscape-stroke:none"
                  transform="translate(-3.349 2.259)" />
            <path d="M49.431 143.83a12.032 12.032 0 0 1 4.019 3.35 12.014 12.014 0 0 1 1.9 3.608"
                  style="-inkscape-stroke:none"
                  transform="translate(-5.426 4.024)" />
            <path d="M48.973 142.4a1.5 1.5 0 0 0-.875.742 1.5 1.5 0 0 0 .646 2.02 10.553 10.553 0 0 1 3.516 2.931 10.528 10.528 0 0 1 1.664 3.156 1.5 1.5 0 0 0 1.889.963 1.5 1.5 0 0 0 .965-1.888 13.508 13.508 0 0 0-2.139-4.06 13.515 13.515 0 0 0-4.521-3.77 1.5 1.5 0 0 0-1.145-.094z"
                  style="-inkscape-stroke:none"
                  transform="translate(-5.426 4.024)" />
            <path d="M49.431 143.83a12.032 12.032 0 0 1 4.019 3.35 12.014 12.014 0 0 1 1.9 3.608"
                  style="-inkscape-stroke:none"
                  transform="translate(-7.088 5.997)" />
            <path d="M48.973 142.4a1.5 1.5 0 0 0-.875.742 1.5 1.5 0 0 0 .646 2.02 10.553 10.553 0 0 1 3.516 2.931 10.528 10.528 0 0 1 1.664 3.156 1.5 1.5 0 0 0 1.889.963 1.5 1.5 0 0 0 .965-1.888 13.508 13.508 0 0 0-2.139-4.06 13.515 13.515 0 0 0-4.521-3.77 1.5 1.5 0 0 0-1.145-.094z"
                  style="-inkscape-stroke:none"
                  transform="translate(-7.088 5.997)" />
        </g>
        <g fill="#de87cd"
           stroke="#000"
           stroke-linecap="round"
           stroke-linejoin="round"
           color="#000">
            <path d="M49.431 143.83a12.032 12.032 0 0 1 4.019 3.35 12.014 12.014 0 0 1 1.9 3.608"
                  style="-inkscape-stroke:none"
                  transform="rotate(-76.593 40.396 150.76)" />
            <path d="M48.973 142.4a1.5 1.5 0 0 0-.875.742 1.5 1.5 0 0 0 .646 2.02 10.553 10.553 0 0 1 3.516 2.931 10.528 10.528 0 0 1 1.664 3.156 1.5 1.5 0 0 0 1.889.963 1.5 1.5 0 0 0 .965-1.888 13.508 13.508 0 0 0-2.139-4.06 13.515 13.515 0 0 0-4.521-3.77 1.5 1.5 0 0 0-1.145-.094z"
                  style="-inkscape-stroke:none"
                  transform="rotate(-76.593 40.396 150.76)" />
        </g>
        <g fill="#de87cd"
           stroke="#000"
           stroke-linecap="round"
           stroke-linejoin="round"
           color="#000">
            <path d="M49.949 132.79a13.19 13.19 0 0 0-3.861.566c-2.586.784-4.825 2.332-6.633 4.198-1.803 1.86-3.183 4.02-4.328 6.224-2.29 4.405-3.718 9.005-6.084 12.87-1.257 2.052-3.077 3.704-4.833 5.352-.37.125-.347 1.749.22 2.352a1.5 1.5 0 0 0 2.12.069 30.023 30.023 0 0 0 5.051-6.207c2.629-4.293 4.066-8.969 6.188-13.051 1.06-2.04 2.295-3.95 3.82-5.524 1.52-1.569 3.359-2.808 5.35-3.412a10.19 10.19 0 0 1 2.98-.437c.828.002 1.843-.678 2.275-1.384.802-1.308-.837-1.56-2.265-1.616z"
                  style="-inkscape-stroke:none"
                  transform="translate(-.234 .6)" />
            <path d="M53.456 130.82c-2.897-.076-6.709.772-9.197 2.258-4.328 2.583-7.44 7.19-9.392 11.44-1.944 4.236-3.394 8.526-5.787 12.075a23.595 23.595 0 0 1-5.097 5.445c-1.411 1.003-1.357 2.898-.233 3.14.51.11 1.16.164 2.069-.767a26.584 26.584 0 0 0 5.748-6.14c2.696-3.999 4.171-8.464 6.025-12.5 1.846-4.021 4.238-7.815 7.727-9.897a12.482 12.482 0 0 1 6.662-1.744 1.5 1.5 0 0 0 1.539-1.459c.022-.828 1.205-1.316-.064-1.851z"
                  style="-inkscape-stroke:none"
                  transform="translate(1.143 3.3)" />
            <path d="M52.336 128.13a20.475 20.475 0 0 0-11.541 5.697c-3.315 3.282-5.306 7.462-7.035 11.471-1.727 4.004-3.282 7.971-5.684 11.242-1.323 1.802-3.18 3.56-4.96 4.912-.704.534-1.223.538-1.243 1.037-.058 1.476 1.67 2.267 2.37 1.967 2.022-1.521 4.754-4.1 6.251-6.14 2.715-3.697 4.325-7.897 6.022-11.83 1.694-3.929 3.56-7.725 6.388-10.525a17.548 17.548 0 0 1 9.84-4.86c.82-.113 3.321-.942 3.209-1.763-.113-.82-2.797-1.32-3.617-1.207z"
                  style="-inkscape-stroke:none"
                  transform="translate(3.22 6.623)" />
            <path d="M54.664 127.02c-4.784.944-10.549 3.302-13.902 6.843-3.184 3.361-5.148 7.503-6.9 11.486-1.751 3.98-3.214 8.035-5.784 11.188-3.411 4.186-5.475 5.09-5.634 5.613-.455 1.494 1.207 2.637 1.95 2.18 1.874-1.486 4.675-4.086 6.096-6.01 2.716-3.675 4.388-7.836 6.116-11.762 1.725-3.921 3.358-7.797 6.113-10.706 3.656-3.86 8.25-5.593 14.148-7.292.072.165.977-1.097-.56-1.381-.451-.084-.9-.305-1.644-.159z"
                  style="-inkscape-stroke:none"
                  transform="translate(4.673 9.219)" />
        </g>
        <g fill="#de87cd"
           stroke="#000"
           stroke-linecap="round"
           stroke-linejoin="round"
           stroke-width="1.588"
           color="#000">
            <path d="M50.86 142.44a1.51 1.49 28.01 0 0-.813.801 1.51 1.49 28.01 0 0 .817 1.96 10.745 10.745 0 0 1 3.762 2.657 10.629 10.629 0 0 1 1.93 3.015 1.51 1.49 28.01 0 0 1.97.82 1.51 1.49 28.01 0 0 .806-1.948 13.64 13.64 0 0 0-2.48-3.88c-1.341-1.472-3-2.644-4.84-3.415a1.51 1.49 28.01 0 0-1.152-.01z"
                  style="-inkscape-stroke:none"
                  transform="matrix(-.33394 .94862 -1.0315 -.31742 227.264 172.788)" />
            <path d="M52.56 142.53c-.36.148-.64.443-.777.82-.287.784.06-.066.832.284.043.02 4.237 1.929 6.887 8.066.346.8.231.907.98.597.748-.31 1.075-1.21.73-2.012a15.326 15.326 0 0 0-2.595-4.082c-1.38-1.557-3.204-3.139-5.053-3.975-.372-.168-.644.154-1.004.302z"
                  style="-inkscape-stroke:none"
                  transform="matrix(-.33394 .94862 -1.0315 -.31742 227.264 172.788)" />
            <path d="M49.529 142.55a1.52 1.481 25.76 0 0-.745.856 1.52 1.481 25.76 0 0 .98 1.888 10.949 10.949 0 0 1 3.986 2.366 10.762 10.762 0 0 1 2.183 2.856 1.52 1.481 25.76 0 0 2.04.67 1.52 1.481 25.76 0 0 .642-1.994 13.807 13.807 0 0 0-2.807-3.675 14.022 14.022 0 0 0-5.126-3.042 1.52 1.481 25.76 0 0-1.153.075z"
                  style="-inkscape-stroke:none"
                  transform="matrix(-.33394 .94862 -1.0315 -.31742 225.782 170.585)" />
            <path d="M48.839 143.14a1.502 1.498 29.905 0 0-.865.752 1.502 1.498 29.905 0 0 .673 2.01 10.58 10.58 0 0 1 3.557 2.89 10.54 10.54 0 0 1 1.707 3.135 1.502 1.498 29.905 0 0 1.902.94 1.502 1.498 29.905 0 0 .94-1.898 13.527 13.527 0 0 0-6.768-7.749 1.502 1.498 29.905 0 0-1.146-.08z"
                  style="-inkscape-stroke:none"
                  transform="matrix(-.33394 .94862 -1.0315 -.31742 225.782 170.585)" />
        </g>
        <g fill="#de87cd"
           stroke="#000"
           stroke-linecap="round"
           stroke-linejoin="round"
           color="#000">
            <path d="M52.041 124.78a31.177 31.177 0 0 0-11.383 9.209c-6.233 9.542-10.567 22.624-18.412 27.399-1.12.681.88 4.077 2.147 2.937a30.72 30.72 0 0 0 5.613-5.59c5.54-7.167 8.065-16.422 13.035-22.924a28.223 28.223 0 0 1 10.285-8.32c.748-.355 1.727-1.007 1.372-1.755-.795-.515-1.685-1.259-2.657-.956z"
                  style="-inkscape-stroke:none"
                  transform="rotate(91.892 39.716 156.258)" />
            <path d="M53.461 123.67A33.12 33.12 0 0 0 40.647 134c-5.39 7.24-7.55 16.026-12.551 22.516a28.799 28.799 0 0 1-4.463 4.617c-.638.528-1.232.681-.705 1.32.528.64 1.978 1.521 2.617.993a31.787 31.787 0 0 0 4.928-5.1c5.519-7.162 7.678-15.969 12.58-22.553a30.173 30.173 0 0 1 11.648-9.392c.754-.344 1.191-.61 1.446-1.397-.416-1.16-1.488-1.768-2.686-1.334z"
                  style="-inkscape-stroke:none"
                  transform="rotate(91.892 37.983 155.463)" />
            <path d="M53.412 123.98a32.02 32.02 0 0 0-12.758 10.012c-5.459 7.207-7.57 16.035-12.559 22.527-1.306 1.7-3.436 4.226-5.09 5.59-1.229.397 1.013 2.243 2.537 1.34a31.427 31.427 0 0 0 4.932-5.104c5.513-7.174 7.623-16.009 12.57-22.54a29.07 29.07 0 0 1 11.559-9.071c.76-.329 1.448-1 1.119-1.761-.33-.76-1.425-1.418-2.31-.993z"
                  style="-inkscape-stroke:none"
                  transform="rotate(91.892 36.503 155.796)" />
            <path d="M54.143 124.04c-.809-.11-.857-.067-1.224.088-5.059 2.13-8.937 5.497-12.263 9.864-5.48 7.197-7.385 16.25-12.37 22.743-5.255 6.845-5.21 5.166-5.478 5.506-.27.34 1.731 2.034 2.733 1.21a31.308 31.308 0 0 0 4.934-5.104c5.51-7.179 7.606-16.023 12.568-22.54a28.729 28.729 0 0 1 11.635-9.013c.762-.321 1.178-1.046.857-1.809-.265-.528-.796-.771-1.392-.945z"
                  style="-inkscape-stroke:none"
                  transform="rotate(91.892 34.833 155.952)" />
            <path d="M52.552 124.69c-4.454 2.115-8.896 5.385-11.894 9.3-5.504 7.185-9.38 15.011-12.527 22.568-.886 2.127-2.339 3.935-3.877 5.476-1.76 1.438 1.758 2.656 2.555 2.001 1.832-1.506 2.222-3.804 3.665-5.686 5.509-7.183 7.59-16.037 12.566-22.535a28.353 28.353 0 0 1 10.287-8.324c.748-.356 2.103-.6 1.748-1.348-.466-.981-.803-2.325-2.524-1.452z"
                  style="-inkscape-stroke:none"
                  transform="rotate(91.892 33.424 156.271)" />
        </g>
        <g fill="#de87cd"
           stroke="#000"
           stroke-linecap="round"
           stroke-linejoin="round"
           color="#000">
            <path d="M49.431 143.83a12.032 12.032 0 0 1 4.019 3.35 12.014 12.014 0 0 1 1.9 3.608"
                  style="-inkscape-stroke:none"
                  transform="rotate(112.42 58.098 155.164)" />
            <path d="M49.627 142.42c-.352-.185-1.956 1.326-2.138 1.68-.378.736.52.681 1.256 1.06a10.553 10.553 0 0 1 3.515 2.932 10.528 10.528 0 0 1 1.664 3.156 1.5 1.5 0 0 0 2.854-.926 13.508 13.508 0 0 0-2.139-4.06c-1.354-1.715-2.535-2.54-5.012-3.842z"
                  style="-inkscape-stroke:none"
                  transform="rotate(112.42 58.098 155.164)" />
            <path d="M49.431 143.83a12.032 12.032 0 0 1 4.019 3.35 12.014 12.014 0 0 1 1.9 3.608"
                  style="-inkscape-stroke:none"
                  transform="rotate(112.42 57.878 156.894)" />
            <path d="M50.304 142.86c-.507.035-2.167.847-2.273 1.251-.379.737-.023.67.713 1.049a10.553 10.553 0 0 1 3.515 2.931 10.528 10.528 0 0 1 1.664 3.156 1.5 1.5 0 0 0 2.854-.925 13.508 13.508 0 0 0-2.139-4.061c-1.152-1.498-3.306-3.42-4.334-3.401z"
                  style="-inkscape-stroke:none"
                  transform="rotate(112.42 57.878 156.894)" />
        </g>
        <g fill="#de87cd"
           stroke="#000"
           stroke-linecap="round"
           stroke-linejoin="round"
           color="#000">
            <path d="M53.189 124.72c-.395-.05-1.15.032-1.51.203-4.457 2.111-8.026 5.146-11.021 9.065-5.498 7.193-7.558 16.059-12.561 22.529-1.461 1.89-2.96 3.917-5.067 5.043-2.268 1.212.317 3.54 1.827 2.38a30.72 30.72 0 0 0 5.613-5.59c5.541-7.166 7.6-16.038 12.57-22.54a28.223 28.223 0 0 1 10.285-8.32c.749-.355 2.338-.831 1.983-1.58-.17-.36-1.16-1.07-1.555-1.12z"
                  style="-inkscape-stroke:none"
                  transform="rotate(58.654 35.112 159.053)" />
            <path d="M54.607 123.63a1.5 1.5 0 0 0-1.147.04A33.12 33.12 0 0 0 40.646 134c-5.39 7.238-7.55 16.025-12.55 22.515-1.31 1.699-2.395 3.897-4.31 4.863-2.137 1.08.16 3.25 1.759 2.067a31.787 31.787 0 0 0 4.927-5.1c5.52-7.162 7.678-15.969 12.58-22.553A30.173 30.173 0 0 1 54.7 126.4c.754-.343 1.79-.87 1.447-1.623-.164-.362-1.168-1.007-1.54-1.147z"
                  style="-inkscape-stroke:none"
                  transform="rotate(58.654 32.341 158.663)" />
            <path d="M53.412 123.98a32.02 32.02 0 0 0-12.758 10.012c-5.459 7.207-7.57 16.035-12.559 22.527-1.306 1.7-2.892 3.816-4.372 5.366-1.485 1.555.56 2.915 1.82 1.564a31.427 31.427 0 0 0 4.93-5.104c5.514-7.174 7.624-16.009 12.57-22.54a29.07 29.07 0 0 1 11.56-9.071c.76-.329 1.782-.921 1.453-1.682-.329-.76-1.884-1.401-2.645-1.072z"
                  style="-inkscape-stroke:none"
                  transform="rotate(58.654 30.4 159.753)" />
            <path d="M54.662 124.02a1.5 1.5 0 0 0-1.148.008 31.678 31.678 0 0 0-12.857 9.96c-5.481 7.198-7.576 16.037-12.561 22.53-1.305 1.7-2.494 3.685-4.148 5.047-.5.502-1.103.755-1.147 1.089-.09.684 1.857 1.74 3.02.782 1.831-1.507 3.21-3.21 4.653-5.092 5.511-7.179 7.607-16.023 12.568-22.539a28.729 28.729 0 0 1 11.635-9.014c.763-.32 1.797-.286 1.476-1.05-.154-.367-1.123-1.57-1.491-1.721z"
                  style="-inkscape-stroke:none"
                  transform="rotate(58.654 28.118 160.673)" />
            <path d="M53.663 125.31c-4.454 2.115-9.846 5.205-12.844 9.12-5.504 7.185-6.965 15.727-11.945 22.221-1.304 1.7-3.78 4.642-5.434 6.003-.64.525-.536-.05-.01.59s1.696 1.317 2.336.79c1.832-1.506 3.266-3.806 4.709-5.688 5.508-7.183 7.15-16.304 12.127-22.803 2.705-3.531 9.005-6.06 13.023-7.969.928-.858-.48-2.97-1.962-2.265z"
                  style="-inkscape-stroke:none"
                  transform="rotate(58.654 26.27 161.713)" />
        </g>
        <g fill="#de87cd"
           stroke="#000"
           stroke-linecap="round"
           stroke-linejoin="round"
           color="#000">
            <path d="M50.667 131.58c-1.306-.004-3.143.463-4.74 1.284-2.404 1.234-4.664 2.825-6.472 4.69-1.803 1.861-3.182 4.021-4.328 6.225-2.29 4.405-3.718 9.004-6.084 12.869-1.257 2.053-3.547 3.967-5.302 5.615-.603.567-.178 2.404.388 3.008.567.605 1.818-.282 2.422-.85a30.023 30.023 0 0 0 5.05-6.206c2.63-4.293 4.066-8.969 6.188-13.051 1.06-2.04 2.295-3.95 3.82-5.524 1.521-1.569 3.36-2.809 5.35-3.412a10.19 10.19 0 0 1 2.98-.437c.828.002 3.436-1.957 3.44-2.784-.38-.644-1.609-1.32-2.712-1.427z"
                  style="-inkscape-stroke:none"
                  transform="scale(-1 1) rotate(-71.884 .712 223.991)" />
            <path d="M52.788 130.34c-2.897-.076-6.518 1.47-9.007 2.955-4.327 2.583-6.962 6.97-8.914 11.221-1.945 4.236-3.394 8.526-5.787 12.074-1.395 2.07-4.432 4.36-6.405 5.888-.284.286.073 2.523 1.419 2.332.507.655 1.07.105 1.724-.402a26.584 26.584 0 0 0 5.748-6.14c2.697-3.999 4.172-8.463 6.026-12.5 1.846-4.021 4.238-7.814 7.726-9.897a12.482 12.482 0 0 1 6.662-1.744c2.66-.11 3.184-4.076.808-3.787z"
                  style="-inkscape-stroke:none"
                  transform="scale(-1 1) rotate(-71.884 1.886 221.692)" />
            <path d="M52.779 127.72c-4.335.597-8.875 3.034-11.985 6.113-3.315 3.281-5.305 7.461-7.035 11.47-1.727 4.005-3.282 7.972-5.684 11.243-1.323 1.802-4.273 3.601-6.06 4.945-1.039 1.058 1.484 3.95 3.164 2.207a25.973 25.973 0 0 0 5.314-5.377c2.715-3.697 4.325-7.896 6.022-11.83 1.694-3.928 3.56-7.725 6.388-10.525a17.548 17.548 0 0 1 9.84-4.86c.82-.112 5.037-1.424 4.925-2.244-.084-.605-2.582-1.18-4.89-1.142z"
                  style="-inkscape-stroke:none"
                  transform="scale(-1 1) rotate(-71.884 3.14 218.598)" />
            <path d="M53.626 127.03c-4.867 1.075-9.511 3.297-12.865 6.837-3.184 3.362-5.148 7.503-6.9 11.486-1.751 3.98-3.367 7.917-5.784 11.188-1.263 1.71-3.38 3.708-5.045 5.03-1.859 1.12.928 4.133 1.404 3.73 1.874-1.487 4.632-5.053 6.053-6.977 2.716-3.675 4.388-7.836 6.116-11.762 1.725-3.921 3.579-7.724 6.334-10.633 2.885-3.046 6.884-5.058 11.17-5.98 3.747-.762 6.201.058 5.478-1.18-1.655-2.83-2.792-2.378-5.962-1.74z"
                  style="-inkscape-stroke:none"
                  transform="scale(-1 1) rotate(-71.884 4.203 216.297)" />
        </g>
    </g>
    <path fill="#de87cd"
          stroke="#000"
          stroke-linecap="round"
          stroke-linejoin="round"
          stroke-width="1.15"
          d="M62.727 132.63c.065-.81-.168-1.6-.563-2.278-.392-.673-.934-1.224-1.517-1.676-.581-.45-1.202-.802-1.81-1.115-1.217-.626-2.398-1.127-3.286-1.87-.441-.369-.808-.797-1.04-1.26-.228-.457-.323-.968-.244-1.412a1.856 1.856 0 0 1 1-1.303c.506-.241 3.753-.28 4.273-.027.062.11-1.68-1.041-1.68-1.041-.969-.47-2.358-.717-3.302-.268s-1.61 1.317-1.79 2.334c-.141.804.028 1.617.38 2.323.35.701.868 1.285 1.438 1.762 1.137.951 2.445 1.482 3.58 2.066.568.292 1.102.599 1.564.957.461.357.854.77 1.118 1.224.262.45.4.956.363 1.413-.036.449-.256.882-.579 1.126-.256.195-.677.336-1.185.549-1.925.805-3.393 2.338-4.315 4.1-.918 1.757-1.313 3.715-1.42 5.647-.331 5.922 2.076 12.01 6.452 16.319.301.295.782.307 1.075.026.293-.282.286-.751-.015-1.048-4.049-3.986-6.3-9.68-5.994-15.16.1-1.791.466-3.55 1.262-5.071.792-1.515 2.048-2.8 3.599-3.45.412-.172.972-.328 1.503-.73.692-.525 1.068-1.319 1.133-2.137z"
          color="#000"
          transform="matrix(.44576 -.6295 .62999 .44542 -18.345 68.057)" />
    <path fill="#80b3ff"
          stroke="#000"
          stroke-linecap="round"
          stroke-linejoin="round"
          stroke-width=".7"
          d="M75.232 23.049a.73.73 0 0 1 .055-.566 4.019 4.019 0 0 1 3.003-2.067c1.267-.164 2.53.307 3.328 1.243.609.715.883 1.609.943 2.478.06.864-.082 1.697-.269 2.475-.373 1.552-.896 2.959-.764 4.227.1.961.572 1.905 1.182 2.793.612.892 1.372 1.755 2.035 2.758 1.372 2.077 2.12 4.515 2.283 6.993.164 2.476-.247 4.979-1.07 7.339-1.585 4.54-4.553 8.386-6.093 12.6a20.766 20.766 0 0 0-1.233 8.383.782.782 0 0 1-.712.81.72.72 0 0 1-.805-.663 22.222 22.222 0 0 1 1.32-8.978c1.648-4.513 4.61-8.354 6.085-12.58.766-2.194 1.14-4.504.991-6.76-.148-2.253-.83-4.46-2.054-6.31-.591-.895-1.345-1.751-2.02-2.735-.679-.988-1.285-2.13-1.422-3.445-.18-1.727.457-3.301.798-4.717.17-.707.276-1.393.231-2.033-.044-.634-.248-1.237-.612-1.664-.46-.54-1.267-.841-1.999-.746-.731.095-1.6.783-1.943 1.428-.196.369-.516.337-.887.16a.707.707 0 0 1-.371-.423z"
          color="#000" />
    <path fill="none"
          stroke="#000"
          stroke-linecap="round"
          stroke-linejoin="round"
          stroke-width="2.813"
          d="M101.02 36.529c.676.853.948 2.013.72 3.077a3.763 3.763 0 0 1-1.913 2.515c-.893.465-1.933.548-2.94.548s-2.024-.072-3.012.119c-1.843.354-3.473 1.669-4.21 3.395s-.556 3.812.463 5.387c1.02 1.576 2.85 2.594 4.725 2.63 1.876.035 3.743-.913 4.822-2.449"
          transform="matrix(-1.2908 -1.467 -1.7071 1.502 283.252 149.143)" />
    <path d="M66.992 53.398c6.403 8.803 11.553 31.999 5.249 44.807-17.187 9.136-26.541 5.117-36.597-2.295 0 0-4.218-34.51 12.455-44.483 4.969-2.973 15.487-2.71 18.893 1.972z" />
    <path d="M62.741 101.693s1.188-30.846 12.594-31.345c9.432-.412 3.056 18.822.428 23.014 6.024-.495 11.511 8.398 6.484 8.324-12.653-.185-19.506.007-19.506.007zM48.163 101.233s-1.188-30.846-12.594-31.344c-9.432-.412-3.056 18.822-.428 23.014-6.024-.495-11.511 8.398-6.484 8.324 12.653-.185 19.506.007 19.506.007z" />
    <path d="M47.349 96.853c3.864.094 6.941 2.425 6.874 5.207a3.039 3.039 0 0 1-.025.31l1.157 2.163-2.035-.76c-.412.247-.948.385-1.577.453l-1.098 2.329-.657-2.276a34.16 34.16 0 0 1-.882-.027l-1.146 2.433-.723-2.501-.328-.012c-.21-.005-.415-.008-.618-.01l-1.004 2.131-.621-2.148a28.652 28.652 0 0 1-1.139-.03l-1.055 2.24-.72-2.49c-.985-.292-1.553-.894-1.522-2.146.067-2.782 3.255-4.961 7.12-4.868z" />
    <g stroke-linejoin="round"
       stroke-width="2.131"
       transform="translate(-107.76 -28.317) scale(.46926)">
        <path d="m429.86 101.22-36.454 9.357c-8.243-8.357-23.405-17.146-50.698-17.084l-14.716-33.147c-1.098 22.45-6.967 35.077-17.973 52.928-14.834 22.767-5.737 49.008 21.857 61.994 32.335 15.217 55.84 21.061 70.674-1.705 7.984-12.254 9.64-24.24 7.961-36.8-2.084-15.608 8.518-24.351 19.347-35.543z" />
        <path fill="#fff"
              d="M346.06 130.38c-8.492-2.01-19.82-8.639-21.959.401-2.139 9.04 3.011 17.997 11.503 20.007 8.492 2.01 17.11-3.69 19.249-12.73 2.139-9.04-.3-5.668-8.793-7.677z" />
        <circle cx="-58.713"
                cy="-364.1"
                r="10.576"
                transform="scale(1 -1) rotate(76.688)" />
        <ellipse cx="-37.819"
                 cy="-398.62"
                 fill="#fff"
                 rx="16.82"
                 ry="15.801"
                 transform="scale(1 -1) rotate(74.074)" />
        <path fill="#fff"
              d="M357.43 159.32c-2.343-6.533-7.619-7.868-13.782-5.33-.426.768-1.028 1.505-.059 2.525 5.863.8 3.622 4.246 2.347 8.145.518 1.146 1.354 1.488 2.508 1.022 1.53-3.716 1.987-7.455 7.46-4.165.717-.022 1.272-.598 1.526-2.197z" />
        <g fill-rule="evenodd"
           stroke="#000"
           stroke-linecap="round"
           stroke-width=".248">
            <path d="m17.036 93.403-6.168-2.35"
                  transform="matrix(-2.4808 -3.5059 -3.4951 2.4884 760.083 -9.507)" />
            <path d="m17.036 93.403-6.168-2.35"
                  transform="matrix(-4.1623 -1.0256 -1.0225 4.1751 558.498 -210.634)" />
            <path d="m17.036 93.403-6.168-2.35"
                  transform="matrix(-3.5918 -2.3458 -2.3386 3.6029 671.175 -133.565)" />
        </g>
        <circle cx="-61.516"
                cy="-393.08"
                r="10.576"
                transform="scale(1 -1) rotate(76.688)" />
        <circle cx="-46.245"
                cy="-388.49"
                r="2.268"
                fill="#fff"
                transform="scale(1 -1) rotate(74.074)" />
        <circle cx="-45.292"
                cy="-373.35"
                r="2.268"
                fill="#fff"
                transform="scale(1 -1) rotate(74.074)" />
        <g fill-rule="evenodd"
           stroke="#000"
           stroke-linecap="round"
           stroke-width=".248">
            <path d="m17.036 93.403-6.168-2.35"
                  transform="matrix(3.921 -1.7524 1.7393 3.9221 89.176 -196.911)" />
            <path d="m17.036 93.403-6.168-2.35"
                  transform="matrix(4.104 1.2385 -1.2477 4.1134 365.115 -267.246)" />
            <path d="m17.036 93.403-6.168-2.35"
                  transform="matrix(4.2858 -.188 .1763 4.2917 228.892 -258.35)" />
        </g>
    </g>
    <g fill="#80b3ff"
       stroke-width="1.278"
       transform="matrix(-.54847 0 0 -.54716 61.821 182.273)">
        <circle cx="48.672"
                cy="159.06"
                r="24.379" />
        <g stroke="#000"
           stroke-linecap="round"
           stroke-linejoin="round"
           color="#000">
            <path d="M68.088 146.683a12.032 12.032 0 0 1 2.868 4.375c.482 1.279.742 2.64.767 4.005" />
            <path d="M68.067 145.182a1.5 1.5 0 0 0-1.024 2.575 10.553 10.553 0 0 1 2.51 3.829c.42 1.116.65 2.31.672 3.504a1.5 1.5 0 0 0 1.526 1.471c.828-.014 2.162.653 2.148-.175-.028-1.539-.995-4.418-1.538-5.858a13.515 13.515 0 0 0-3.227-4.923 1.5 1.5 0 0 0-1.067-.423z" />
        </g>
        <g stroke="#000"
           stroke-linecap="round"
           stroke-linejoin="round"
           stroke-width="1.385"
           color="#000">
            <path d="M49.431 143.83a12.032 12.032 0 0 1 4.019 3.35 12.014 12.014 0 0 1 1.9 3.608"
                  transform="matrix(-.17338 -.8991 .88432 -.32176 -86.044 264.45)" />
            <path d="M48.973 142.4a1.5 1.5 0 0 0-.875.742 1.5 1.5 0 0 0 .646 2.02 10.553 10.553 0 0 1 3.516 2.931 10.528 10.528 0 0 1 1.664 3.156 1.5 1.5 0 0 0 1.889.963 1.5 1.5 0 0 0 .965-1.888 13.508 13.508 0 0 0-2.139-4.06 13.515 13.515 0 0 0-4.521-3.77 1.5 1.5 0 0 0-1.145-.094z"
                  transform="matrix(-.17338 -.8991 .88432 -.32176 -86.044 264.45)" />
            <path d="M49.431 143.83a12.032 12.032 0 0 1 4.019 3.35 12.014 12.014 0 0 1 1.9 3.608"
                  transform="matrix(-.17338 -.8991 .88432 -.32176 -84.198 265.722)" />
            <path d="M48.973 142.4a1.5 1.5 0 0 0-.875.742 1.5 1.5 0 0 0 .646 2.02 10.553 10.553 0 0 1 3.516 2.931 10.528 10.528 0 0 1 1.664 3.156 1.5 1.5 0 0 0 1.889.963 1.5 1.5 0 0 0 .965-1.888 13.508 13.508 0 0 0-2.139-4.06 13.515 13.515 0 0 0-4.521-3.77 1.5 1.5 0 0 0-1.145-.094z"
                  transform="matrix(-.17338 -.8991 .88432 -.32176 -84.198 265.722)" />
            <path d="M49.431 143.83a12.032 12.032 0 0 1 4.019 3.35 12.014 12.014 0 0 1 1.9 3.608"
                  transform="matrix(-.17338 -.8991 .88432 -.32176 -82.187 266.991)" />
            <path d="M48.973 142.4a1.5 1.5 0 0 0-.875.742 1.5 1.5 0 0 0 .646 2.02 10.553 10.553 0 0 1 3.516 2.931 10.528 10.528 0 0 1 1.664 3.156 1.5 1.5 0 0 0 1.889.963 1.5 1.5 0 0 0 .965-1.888 13.508 13.508 0 0 0-2.139-4.06 13.515 13.515 0 0 0-4.521-3.77 1.5 1.5 0 0 0-1.145-.094z"
                  transform="matrix(-.17338 -.8991 .88432 -.32176 -82.187 266.991)" />
            <path d="M49.431 143.83a12.032 12.032 0 0 1 4.019 3.35 12.014 12.014 0 0 1 1.9 3.608"
                  transform="matrix(-.17338 -.8991 .88432 -.32176 -80.266 268.292)" />
            <path d="M48.973 142.4a1.5 1.5 0 0 0-.875.742 1.5 1.5 0 0 0 .646 2.02 10.553 10.553 0 0 1 3.516 2.931 10.528 10.528 0 0 1 1.664 3.156 1.5 1.5 0 0 0 1.889.963 1.5 1.5 0 0 0 .965-1.888 13.508 13.508 0 0 0-2.139-4.06 13.515 13.515 0 0 0-4.521-3.77 1.5 1.5 0 0 0-1.145-.094z"
                  transform="matrix(-.17338 -.8991 .88432 -.32176 -80.266 268.292)" />
            <path d="M49.431 143.83a12.032 12.032 0 0 1 4.019 3.35 12.014 12.014 0 0 1 1.9 3.608"
                  transform="matrix(-.17338 -.8991 .88432 -.32176 -78.234 269.152)" />
            <path d="M48.973 142.4a1.5 1.5 0 0 0-.875.742 1.5 1.5 0 0 0 .646 2.02 10.553 10.553 0 0 1 3.516 2.931 10.528 10.528 0 0 1 1.664 3.156 1.5 1.5 0 0 0 1.889.963 1.5 1.5 0 0 0 .965-1.888 13.508 13.508 0 0 0-2.139-4.06 13.515 13.515 0 0 0-4.521-3.77 1.5 1.5 0 0 0-1.145-.094z"
                  transform="matrix(-.17338 -.8991 .88432 -.32176 -78.234 269.152)" />
        </g>
        <g stroke="#000"
           stroke-linecap="round"
           stroke-linejoin="round"
           stroke-width="1.385"
           color="#000">
            <path d="M49.431 143.83a12.032 12.032 0 0 1 4.019 3.35 12.014 12.014 0 0 1 1.9 3.608"
                  transform="matrix(-.89715 -.18321 .04044 -.94018 82.14 316.695)" />
            <path d="M48.973 142.4a1.5 1.5 0 0 0-.875.742 1.5 1.5 0 0 0 .646 2.02 10.553 10.553 0 0 1 3.516 2.931 10.528 10.528 0 0 1 1.664 3.156 1.5 1.5 0 0 0 1.889.963 1.5 1.5 0 0 0 .965-1.888 13.508 13.508 0 0 0-2.139-4.06 13.515 13.515 0 0 0-4.521-3.77 1.5 1.5 0 0 0-1.145-.094z"
                  transform="matrix(-.89715 -.18321 .04044 -.94018 82.14 316.695)" />
            <path d="M49.431 143.83a12.032 12.032 0 0 1 4.019 3.35 12.014 12.014 0 0 1 1.9 3.608"
                  transform="matrix(-.89715 -.18321 .04044 -.94018 84.02 315.474)" />
            <path d="M48.973 142.4a1.5 1.5 0 0 0-.875.742 1.5 1.5 0 0 0 .646 2.02 10.553 10.553 0 0 1 3.516 2.931 10.528 10.528 0 0 1 1.664 3.156 1.5 1.5 0 0 0 1.889.963 1.5 1.5 0 0 0 .965-1.888 13.508 13.508 0 0 0-2.139-4.06 13.515 13.515 0 0 0-4.521-3.77 1.5 1.5 0 0 0-1.145-.094z"
                  transform="matrix(-.89715 -.18321 .04044 -.94018 84.02 315.474)" />
            <path d="M49.431 143.83a12.032 12.032 0 0 1 4.019 3.35 12.014 12.014 0 0 1 1.9 3.608"
                  transform="matrix(-.89715 -.18321 .04044 -.94018 85.962 314.1)" />
            <path d="M48.973 142.4a1.5 1.5 0 0 0-.875.742 1.5 1.5 0 0 0 .646 2.02 10.553 10.553 0 0 1 3.516 2.931 10.528 10.528 0 0 1 1.664 3.156 1.5 1.5 0 0 0 1.889.963 1.5 1.5 0 0 0 .965-1.888 13.508 13.508 0 0 0-2.139-4.06 13.515 13.515 0 0 0-4.521-3.77 1.5 1.5 0 0 0-1.145-.094z"
                  transform="matrix(-.89715 -.18321 .04044 -.94018 85.962 314.1)" />
            <path d="M49.431 143.83a12.032 12.032 0 0 1 4.019 3.35 12.014 12.014 0 0 1 1.9 3.608"
                  transform="matrix(-.89715 -.18321 .04044 -.94018 87.898 312.822)" />
            <path d="M48.973 142.4a1.5 1.5 0 0 0-.875.742 1.5 1.5 0 0 0 .646 2.02 10.553 10.553 0 0 1 3.516 2.931 10.528 10.528 0 0 1 1.664 3.156 1.5 1.5 0 0 0 1.889.963 1.5 1.5 0 0 0 .965-1.888 13.508 13.508 0 0 0-2.139-4.06 13.515 13.515 0 0 0-4.521-3.77 1.5 1.5 0 0 0-1.145-.094z"
                  transform="matrix(-.89715 -.18321 .04044 -.94018 87.898 312.822)" />
            <path d="M49.431 143.83a12.032 12.032 0 0 1 4.019 3.35 12.014 12.014 0 0 1 1.9 3.608"
                  transform="matrix(-.89715 -.18321 .04044 -.94018 89.469 311.273)" />
            <path d="M48.973 142.4a1.5 1.5 0 0 0-.875.742 1.5 1.5 0 0 0 .646 2.02 10.553 10.553 0 0 1 3.516 2.931 10.528 10.528 0 0 1 1.664 3.156 1.5 1.5 0 0 0 1.889.963 1.5 1.5 0 0 0 .965-1.888 13.508 13.508 0 0 0-2.139-4.06 13.515 13.515 0 0 0-4.521-3.77 1.5 1.5 0 0 0-1.145-.094z"
                  transform="matrix(-.89715 -.18321 .04044 -.94018 89.469 311.273)" />
        </g>
        <path stroke="#000"
              stroke-linecap="round"
              stroke-linejoin="round"
              stroke-width=".863"
              d="M51.054 143.61s-3.508.937-2.31 1.555c10.491-2.4 1.924 8.27 7.069 7.051a1.5 1.5 0 0 0 .965-1.889c-.476-1.463.719-4.715-.22-5.935z"
              color="#000"
              transform="matrix(-1.7885 -.6351 -1.2185 -1.6587 311.88 454.02)" />
        <path stroke="#000"
              stroke-linecap="round"
              stroke-linejoin="round"
              stroke-width=".863"
              d="M48.744 145.16c1.365.702 5.115-.424 5.338 1.834.146 1.48-.527 3.119-.158 4.254.256.787-.413 2.205.374 1.95.788-.256.654-.697 1.775-2.48-.475-1.464.672-4.337-.266-5.556-.447-1.415-7.913-.44-7.063-.002z"
              color="#000"
              transform="matrix(-1.7885 -.6351 -1.2185 -1.6587 309.31 454.63)" />
        <path stroke="#000"
              stroke-linecap="round"
              stroke-linejoin="round"
              stroke-width=".863"
              d="M48.488 144.76c.139.256-.022.258.256.401 1.365.702 5.54-.702 6.476.514.728.946-.907 3.71-.539 4.846.256.787.344 1.946 1.131 1.691a1.5 1.5 0 0 0 .965-1.889c-.475-1.463.834-4.51-.01-5.954-1.017-1.74-2.243-2.296-6.945-.996-.16.104-.9.549-1.334 1.387z"
              color="#000"
              transform="matrix(-1.7885 -.6351 -1.2185 -1.6587 313.99 451.82)" />
        <g stroke="#000"
           stroke-linecap="round"
           stroke-linejoin="round"
           color="#000">
            <path d="M64.608 142.466a12.032 12.032 0 0 1-2.894 4.358 12.014 12.014 0 0 1-3.38 2.281" />
            <path d="M65.98 141.856a1.5 1.5 0 0 0-.833-.79 1.5 1.5 0 0 0-1.937.862 10.553 10.553 0 0 1-2.533 3.813 10.528 10.528 0 0 1-2.957 1.997 1.5 1.5 0 0 0-.752 1.982 1.5 1.5 0 0 0 1.982.754 13.508 13.508 0 0 0 3.805-2.567 13.515 13.515 0 0 0 3.256-4.903 1.5 1.5 0 0 0-.03-1.148zM66.095 144.602a12.032 12.032 0 0 1-2.894 4.358 12.014 12.014 0 0 1-3.38 2.281" />
            <path d="M67.467 143.992a1.5 1.5 0 0 0-.833-.79 1.5 1.5 0 0 0-1.937.862 10.553 10.553 0 0 1-2.533 3.813 10.528 10.528 0 0 1-2.957 1.997 1.5 1.5 0 0 0-.753 1.982 1.5 1.5 0 0 0 1.983.754 13.508 13.508 0 0 0 3.804-2.567 13.515 13.515 0 0 0 3.257-4.904 1.5 1.5 0 0 0-.031-1.147zM62.525 140.604a12.032 12.032 0 0 1-2.894 4.359 12.014 12.014 0 0 1-3.38 2.28" />
            <path d="M63.897 139.994a1.5 1.5 0 0 0-.833-.79 1.5 1.5 0 0 0-1.938.862 10.553 10.553 0 0 1-2.532 3.813 10.528 10.528 0 0 1-2.957 1.997 1.5 1.5 0 0 0-.753 1.982 1.5 1.5 0 0 0 1.982.754 13.508 13.508 0 0 0 3.805-2.566 13.515 13.515 0 0 0 3.257-4.904 1.5 1.5 0 0 0-.031-1.148zM60.544 138.731a12.032 12.032 0 0 1-2.894 4.358 12.014 12.014 0 0 1-3.38 2.281" />
            <path d="M62.51 137.752c-.215-.732-1.682-1.22-2.008-1.046-.773.29-1.053.713-1.35 1.486a10.553 10.553 0 0 1-2.533 3.813A10.528 10.528 0 0 1 53.662 144a1.5 1.5 0 0 0 1.23 2.737 13.508 13.508 0 0 0 3.805-2.567 13.515 13.515 0 0 0 3.256-4.904z" />
            <path d="M58.403 137.294a12.032 12.032 0 0 1-2.894 4.358 12.014 12.014 0 0 1-3.38 2.28" />
            <path d="M59.445 136.61a1.5 1.5 0 0 0-.833-.79 1.5 1.5 0 0 0-1.938.862 10.553 10.553 0 0 1-2.532 3.813 10.528 10.528 0 0 1-2.957 1.997 1.5 1.5 0 0 0-.753 1.982 1.5 1.5 0 0 0 1.982.754 13.508 13.508 0 0 0 3.805-2.567 13.515 13.515 0 0 0 3.257-4.904 1.5 1.5 0 0 0-.031-1.148z" />
        </g>
        <g stroke="#000"
           stroke-linecap="round"
           stroke-linejoin="round"
           color="#000">
            <path d="M48.159 144.22a12.032 12.032 0 0 1 4.018 3.35 12.014 12.014 0 0 1 1.901 3.607" />
            <path d="M47.7 142.79a1.5 1.5 0 0 0-.874.742 1.5 1.5 0 0 0 .646 2.02 10.553 10.553 0 0 1 3.516 2.93 10.528 10.528 0 0 1 1.664 3.157 1.5 1.5 0 0 0 1.889.963 1.5 1.5 0 0 0 .965-1.889 13.508 13.508 0 0 0-2.14-4.06 13.515 13.515 0 0 0-4.52-3.77 1.5 1.5 0 0 0-1.145-.094zM50.444 142.973a12.032 12.032 0 0 1 4.018 3.35 12.014 12.014 0 0 1 1.9 3.608" />
            <path d="M49.986 141.543a1.5 1.5 0 0 0-.875.742 1.5 1.5 0 0 0 .646 2.02 10.553 10.553 0 0 1 3.516 2.931 10.528 10.528 0 0 1 1.664 3.157 1.5 1.5 0 0 0 1.888.963 1.5 1.5 0 0 0 .965-1.89 13.508 13.508 0 0 0-2.138-4.06 13.515 13.515 0 0 0-4.522-3.77 1.5 1.5 0 0 0-1.144-.093zM46.082 146.089a12.032 12.032 0 0 1 4.018 3.35 12.014 12.014 0 0 1 1.901 3.607" />
            <path d="M45.624 144.659a1.5 1.5 0 0 0-.875.742 1.5 1.5 0 0 0 .646 2.02 10.553 10.553 0 0 1 3.516 2.93 10.528 10.528 0 0 1 1.664 3.157 1.5 1.5 0 0 0 1.889.963 1.5 1.5 0 0 0 .965-1.889 13.508 13.508 0 0 0-2.139-4.06 13.515 13.515 0 0 0-4.521-3.77 1.5 1.5 0 0 0-1.145-.094zM44.005 147.854a12.032 12.032 0 0 1 4.019 3.35 12.014 12.014 0 0 1 1.9 3.608" />
            <path d="M43.547 146.424a1.5 1.5 0 0 0-.875.742 1.5 1.5 0 0 0 .647 2.02 10.553 10.553 0 0 1 3.515 2.931 10.528 10.528 0 0 1 1.664 3.157 1.5 1.5 0 0 0 1.889.962 1.5 1.5 0 0 0 .965-1.888 13.508 13.508 0 0 0-2.139-4.06 13.515 13.515 0 0 0-4.521-3.77 1.5 1.5 0 0 0-1.145-.094zM42.343 149.827a12.032 12.032 0 0 1 4.019 3.35 12.014 12.014 0 0 1 1.9 3.608" />
            <path d="M41.886 148.397a1.5 1.5 0 0 0-.876.742 1.5 1.5 0 0 0 .647 2.02 10.553 10.553 0 0 1 3.516 2.931 10.528 10.528 0 0 1 1.664 3.157 1.5 1.5 0 0 0 1.888.962 1.5 1.5 0 0 0 .965-1.888 13.508 13.508 0 0 0-2.138-4.06 13.515 13.515 0 0 0-4.522-3.77 1.5 1.5 0 0 0-1.144-.094z" />
        </g>
        <g stroke="#000"
           stroke-linecap="round"
           stroke-linejoin="round"
           color="#000">
            <path d="M35.75 140.364a12.032 12.032 0 0 1 4.19-3.132 12.014 12.014 0 0 1 3.95-1.012" />
            <path d="M34.253 140.478a1.5 1.5 0 0 0 .519 1.024 1.5 1.5 0 0 0 2.114-.161 10.553 10.553 0 0 1 3.667-2.74 10.528 10.528 0 0 1 3.456-.887 1.5 1.5 0 0 0 1.374-1.614 1.5 1.5 0 0 0-1.613-1.376 13.508 13.508 0 0 0-4.446 1.138 13.515 13.515 0 0 0-4.715 3.525 1.5 1.5 0 0 0-.357 1.091z" />
        </g>
        <g stroke="#000"
           stroke-linecap="round"
           stroke-linejoin="round"
           color="#000">
            <path d="M49.715 133.39a13.19 13.19 0 0 0-3.86.566c-2.587.784-4.826 2.331-6.634 4.197-1.803 1.861-3.182 4.02-4.328 6.225-2.29 4.404-3.718 9.004-6.084 12.869-1.257 2.053-3.077 3.704-4.832 5.352-.37.126-.348 1.75.219 2.353a1.5 1.5 0 0 0 2.121.068 30.023 30.023 0 0 0 5.05-6.207c2.63-4.293 4.066-8.968 6.188-13.05 1.06-2.04 2.295-3.95 3.82-5.524 1.52-1.57 3.359-2.809 5.35-3.412a10.19 10.19 0 0 1 2.98-.438c.828.002 1.843-.678 2.276-1.384.801-1.308-.838-1.559-2.266-1.616z" />
            <path d="M54.599 134.12c-2.897-.077-6.71.772-9.198 2.257-4.327 2.583-7.439 7.19-9.391 11.441-1.945 4.236-3.394 8.526-5.787 12.074a23.595 23.595 0 0 1-5.098 5.446c-1.41 1.003-1.357 2.897-.232 3.139.51.11 1.16.164 2.068-.766a26.584 26.584 0 0 0 5.748-6.141c2.696-3.999 4.172-8.463 6.025-12.5 1.847-4.02 4.238-7.814 7.727-9.897a12.482 12.482 0 0 1 6.662-1.744 1.5 1.5 0 0 0 1.54-1.459c.021-.827 1.205-1.316-.065-1.85z" />
            <path d="M55.555 134.753a20.475 20.475 0 0 0-11.54 5.697c-3.316 3.281-5.306 7.461-7.036 11.47-1.727 4.005-3.282 7.972-5.683 11.243-1.324 1.802-3.18 3.56-4.961 4.911-.704.535-1.223.539-1.242 1.038-.058 1.476 1.669 2.267 2.37 1.966 2.021-1.52 4.753-4.1 6.25-6.14 2.715-3.697 4.325-7.896 6.022-11.83 1.695-3.928 3.56-7.725 6.389-10.525a17.548 17.548 0 0 1 9.84-4.86c.82-.112 3.32-.942 3.208-1.762-.113-.82-2.797-1.32-3.617-1.208z" />
            <path d="M59.337 136.239c-4.784.944-10.549 3.302-13.902 6.843-3.184 3.361-5.147 7.502-6.9 11.486-1.751 3.979-3.214 8.035-5.783 11.188-3.412 4.186-5.475 5.089-5.635 5.613-.454 1.494 1.207 2.637 1.95 2.18 1.874-1.486 4.675-4.087 6.097-6.01 2.715-3.675 4.388-7.836 6.115-11.762 1.725-3.921 3.359-7.797 6.114-10.706 3.655-3.86 8.248-5.593 14.148-7.293.071.166.977-1.096-.56-1.38-.452-.084-.902-.306-1.644-.159z" />
        </g>
        <g stroke="#000"
           stroke-linecap="round"
           stroke-linejoin="round"
           stroke-width="1.227"
           color="#000">
            <path d="M50.86 142.44a1.51 1.49 28.01 0 0-.813.801 1.51 1.49 28.01 0 0 .817 1.96 10.745 10.745 0 0 1 3.762 2.657 10.629 10.629 0 0 1 1.93 3.015 1.51 1.49 28.01 0 0 1.97.82 1.51 1.49 28.01 0 0 .806-1.948 13.64 13.64 0 0 0-2.48-3.88c-1.341-1.472-3-2.644-4.84-3.415a1.51 1.49 28.01 0 0-1.152-.01z"
                  transform="matrix(-.33394 .94862 -1.0315 -.31742 227.264 172.788)" />
            <path d="M52.56 142.53c-.36.148-.64.443-.777.82-.287.784.06-.066.832.284.043.02 4.237 1.929 6.887 8.066.346.8.231.907.98.597.748-.31 1.075-1.21.73-2.012a15.326 15.326 0 0 0-2.595-4.082c-1.38-1.557-3.204-3.139-5.053-3.975-.372-.168-.644.154-1.004.302z"
                  transform="matrix(-.33394 .94862 -1.0315 -.31742 227.264 172.788)" />
            <path d="M49.529 142.55a1.52 1.481 25.76 0 0-.745.856 1.52 1.481 25.76 0 0 .98 1.888 10.949 10.949 0 0 1 3.986 2.366 10.762 10.762 0 0 1 2.183 2.856 1.52 1.481 25.76 0 0 2.04.67 1.52 1.481 25.76 0 0 .642-1.994 13.807 13.807 0 0 0-2.807-3.675 14.022 14.022 0 0 0-5.126-3.042 1.52 1.481 25.76 0 0-1.153.075z"
                  transform="matrix(-.33394 .94862 -1.0315 -.31742 225.782 170.585)" />
            <path d="M48.839 143.14a1.502 1.498 29.905 0 0-.865.752 1.502 1.498 29.905 0 0 .673 2.01 10.58 10.58 0 0 1 3.557 2.89 10.54 10.54 0 0 1 1.707 3.135 1.502 1.498 29.905 0 0 1.902.94 1.502 1.498 29.905 0 0 .94-1.898 13.527 13.527 0 0 0-6.768-7.749 1.502 1.498 29.905 0 0-1.146-.08z"
                  transform="matrix(-.33394 .94862 -1.0315 -.31742 225.782 170.585)" />
        </g>
        <g stroke="#000"
           stroke-linecap="round"
           stroke-linejoin="round"
           color="#000">
            <path d="M70.77 169.615a31.177 31.177 0 0 0-8.828-11.68c-9.331-6.545-22.263-11.31-26.777-19.307-.644-1.142-4.104.744-3.006 2.048a30.72 30.72 0 0 0 5.401 5.795c6.98 5.774 16.147 8.603 22.482 13.784a28.223 28.223 0 0 1 7.976 10.555c.33.76.949 1.759 1.709 1.429.54-.778 1.313-1.642 1.043-2.624z" />
            <path d="M69.247 171.982a33.12 33.12 0 0 0-9.901-13.148c-7.058-5.626-15.768-8.075-22.09-13.287a28.799 28.799 0 0 1-4.467-4.613c-.506-.656-.64-1.254-1.296-.748s-1.585 1.927-1.078 2.583a31.787 31.787 0 0 0 4.934 5.093c6.976 5.752 15.707 8.2 22.125 13.318a30.173 30.173 0 0 1 9.003 11.951c.318.765.57 1.211 1.349 1.492 1.172-.378 1.815-1.43 1.421-2.64z" />
            <path d="M67.743 173.747a32.02 32.02 0 0 0-9.585-13.082c-7.023-5.694-15.776-8.095-22.1-13.296-1.656-1.36-4.11-3.573-5.418-5.271-.357-1.241-2.276.938-1.424 2.491a31.427 31.427 0 0 0 4.938 5.098c6.989 5.746 15.749 8.147 22.114 13.307a29.07 29.07 0 0 1 8.684 11.852c.303.771.952 1.48 1.723 1.177.77-.304 1.464-1.377 1.068-2.277z" />
            <path d="M66.09 176.305c.136-.805.095-.854-.048-1.226-1.96-5.126-5.198-9.114-9.453-12.582-7.012-5.715-15.997-7.917-22.322-13.114-6.668-5.478-4.991-5.377-5.322-5.657-.331-.28-2.09 1.663-1.3 2.692a31.308 31.308 0 0 0 4.939 5.1c6.993 5.744 15.763 8.13 22.111 13.304a28.729 28.729 0 0 1 8.625 11.927c.296.773 1.006 1.212 1.78.917.536-.248.797-.77.99-1.36z" />
            <path d="M64.356 176.432c-1.967-4.521-5.089-9.07-8.902-12.195-7-5.738-14.694-9.87-22.143-13.265-2.096-.955-3.855-2.467-5.344-4.056-1.38-1.806-2.713 1.67-2.085 2.488 1.445 1.88 3.729 2.346 5.562 3.85 6.998 5.743 15.778 8.115 22.108 13.304a28.353 28.353 0 0 1 7.98 10.556c.33.76.53 2.122 1.29 1.792.996-.434 2.35-.726 1.534-2.475z" />
        </g>
        <g stroke="#000"
           stroke-linecap="round"
           stroke-linejoin="round"
           color="#000">
            <path d="M71.88 151.475a12.032 12.032 0 0 1-4.629 2.437 12.014 12.014 0 0 1-4.06.381" />
            <path d="M73.109 152.194c.305-.255-.48-2.314-.737-2.617-.537-.63-.828.22-1.46.756a10.553 10.553 0 0 1-4.05 2.132 10.528 10.528 0 0 1-3.553.334 1.5 1.5 0 0 0-.232 2.991 13.508 13.508 0 0 0 4.569-.428c2.101-.598 3.315-1.375 5.463-3.168zM73.176 154.068a12.032 12.032 0 0 1-4.63 2.437 12.014 12.014 0 0 1-4.06.381" />
            <path d="M73.74 155.245c.16-.482.043-2.326-.29-2.579-.536-.63-.61-.276-1.241.26a10.553 10.553 0 0 1-4.051 2.131 10.528 10.528 0 0 1-3.552.335 1.5 1.5 0 0 0-.233 2.991 13.508 13.508 0 0 0 4.57-.428c1.823-.494 4.421-1.752 4.796-2.71z" />
        </g>
        <g stroke="#000"
           stroke-linecap="round"
           stroke-linejoin="round"
           color="#000">
            <path d="M73.837 156.63c-.163-.363-.625-.965-.959-1.183-4.121-2.709-8.57-4.178-13.474-4.697-9.004-.954-17.647 1.899-25.775.992-2.374-.265-4.885-.49-6.943-1.704-2.215-1.307-2.858 2.112-1.083 2.799a30.72 30.72 0 0 0 7.694 1.886c9.003 1.004 17.652-1.853 25.79-.991a28.223 28.223 0 0 1 12.456 4.456c.692.454 1.925 1.564 2.38.872.219-.332.31-1.548.148-1.91z" />
            <path d="M73.843 159.454a1.5 1.5 0 0 0-.63-.959 33.12 33.12 0 0 0-15.488-5.57c-8.987-.837-17.614 1.889-25.758.994-2.132-.234-4.574-.017-6.395-1.15-2.034-1.264-2.693 1.827-.85 2.577a31.787 31.787 0 0 0 6.918 1.555c8.988.988 17.632-1.75 25.806-.988a30.173 30.173 0 0 1 14.08 5.062c.686.465 1.674 1.076 2.14.391.222-.328.251-1.522.177-1.912z" />
            <path d="M72.922 160.796a32.02 32.02 0 0 0-15.187-5.687c-8.995-.913-17.633 1.876-25.772.993-2.131-.232-4.764-.486-6.858-.943-2.1-.46-2.198 1.994-.389 2.367a31.427 31.427 0 0 0 6.924 1.557c8.996.976 17.638-1.818 25.79-.99a29.07 29.07 0 0 1 13.76 5.153c.676.478 1.714 1.043 2.192.366.479-.676.217-2.338-.46-2.816z" />
            <path d="M73.23 164.275a1.5 1.5 0 0 0-.605-.977A31.678 31.678 0 0 0 57.43 157.5c-8.998-.937-17.637 1.872-25.775.992-2.13-.23-4.445-.212-6.469-.917-.688-.166-1.218-.549-1.526-.413-.63.279-.52 2.491.903 2.987 2.24.78 4.412 1.07 6.77 1.325 8.997.971 17.64-1.84 25.787-.992a28.729 28.729 0 0 1 13.75 5.248c.672.484 1.18 1.385 1.665.714.233-.322.757-1.776.694-2.169z" />
            <path d="M71.61 166.17c-4.124-2.703-9.568-5.7-14.47-6.225-9-.963-17.056 2.234-25.193 1.358-2.13-.229-5.93-.813-7.953-1.519-.782-.273-.236-.482-.51.3-.272.782-.241 2.133.541 2.406 2.24.78 4.95.809 7.308 1.062 9 .968 17.643-2.375 25.783-1.505 4.423.473 9.86 4.537 13.58 6.976 1.216.347 2.288-1.954.914-2.853z" />
        </g>
        <g stroke="#000"
           stroke-linecap="round"
           stroke-linejoin="round"
           color="#000">
            <path d="M71.585 147.778c.41 1.24.537 3.13.254 4.904-.426 2.669-1.235 5.311-2.446 7.61-1.208 2.291-2.832 4.274-4.57 6.048-3.475 3.546-7.402 6.334-10.34 9.784-1.56 1.834-2.667 4.605-3.687 6.786-.351.75-2.23.917-2.98.566-.751-.35-.297-1.815.054-2.566a30.023 30.023 0 0 1 4.329-6.73c3.263-3.833 7.26-6.653 10.48-9.94 1.609-1.641 3.04-3.409 4.062-5.348 1.018-1.933 1.625-4.065 1.58-6.145a10.19 10.19 0 0 0-.512-2.969c-.259-.786.791-3.873 1.577-4.133.73.16 1.755 1.117 2.2 2.132z" />
            <path d="M69.11 144.908c.973 2.73.63 6.652-.008 9.48-1.11 4.915-4.459 8.783-7.893 11.96-3.42 3.166-7.047 5.878-9.676 9.255-1.533 1.97-2.765 5.568-3.604 7.918-.184.36-2.42.715-2.658-.623-.78-.278-.432-.984-.154-1.764a26.584 26.584 0 0 1 4.048-7.372c2.962-3.806 6.747-6.597 10.007-9.614 3.248-3.005 6.11-6.458 7.004-10.42.51-2.263.364-4.69-.414-6.875-.722-2.562 2.884-4.294 3.348-1.945z" />
            <path d="M67.799 143.161c.78 4.306-.125 9.379-2.083 13.292-2.088 4.17-5.442 7.362-8.715 10.253-3.268 2.887-6.555 5.598-8.918 8.898-1.3 1.818-2.094 5.18-2.816 7.297-.682 1.317-4.215-.182-3.08-2.32a25.973 25.973 0 0 1 3.457-6.723c2.67-3.73 6.16-6.566 9.371-9.402 3.207-2.832 6.236-5.785 8.017-9.345a17.548 17.548 0 0 0 1.559-10.863c-.148-.814-.212-5.23.602-5.378.601-.109 1.924 2.086 2.605 4.292z" />
            <path d="M65.272 141.567c.491 4.96-.176 10.065-2.498 14.353-2.205 4.072-5.53 7.226-8.771 10.13-3.238 2.902-6.478 5.661-8.835 8.976-1.233 1.732-2.474 4.365-3.211 6.359-.487 2.115-4.218.403-3.982-.175.83-2.243 3.362-5.973 4.748-7.922 2.648-3.724 6.083-6.607 9.277-9.47 3.19-2.859 6.228-5.803 8.137-9.326 1.998-3.69 2.666-8.116 2.21-12.477-.44-3.797-1.983-5.875-.582-5.573 3.205.693 3.128 1.915 3.507 5.126z" />
        </g>
    </g>
    <path fill="#80b3ff"
          stroke="#000"
          stroke-linecap="round"
          stroke-linejoin="round"
          stroke-width=".7"
          d="M53.32 68.687a20.405 20.405 0 0 0-.401-3.136c-1.095-5.264-4.138-9.863-6.825-14.367-2.682-4.496-5.13-9.266-5.146-14.175-.006-1.794.329-3.574 1.134-5.096.802-1.514 2.11-2.778 3.699-3.37.422-.157 1.039-.295 1.577-.779.4-.36.64-.836.728-1.338.087-.499.02-1-.15-1.457-.337-.91-1.044-1.578-1.787-2.043-.734-.46-1.5-.735-2.193-1.005-.692-.27-1.328-.542-1.826-.914a3.686 3.686 0 0 1-1.222-1.6 3.427 3.427 0 0 1-.153-1.958c.362-1.583 1.126-1.905 2.569-2.345l.719-1.815c-2.383.364-4.452 2.512-4.775 3.794-.232.915-.128 1.899.22 2.8.349.9.959 1.7 1.748 2.288.71.53 1.489.844 2.203 1.123.713.277 1.379.527 1.924.868.537.336.97.786 1.146 1.262.087.236.114.485.077.7a.955.955 0 0 1-.283.534c-.196.177-.594.305-1.112.498-1.98.738-3.521 2.255-4.466 4.039-.94 1.777-1.303 3.787-1.297 5.762.018 5.38 2.646 10.382 5.36 14.933 2.71 4.544 5.622 9.008 6.64 13.902.8 3.845.378 7.89-1.191 11.412-1.57 3.523-4.288 6.53-7.67 8.482-.355.204-9.863 7.228-9.639 7.582.224.354 10.094-6.096 10.45-6.301 3.648-2.106 6.564-5.329 8.257-9.129 1.27-2.85 1.842-6.003 1.685-9.15z"
          color="#000" />
    <path fill="#80b3ff"
          stroke="#000"
          stroke-linecap="round"
          stroke-linejoin="round"
          stroke-width=".7"
          d="M44.156 66.455c.26-4.819 2.84-9.202 5.666-13.04 2.822-3.831 5.982-7.372 7.983-11.438.708-1.438 1.26-2.927 1.467-4.433.208-1.501.06-3.036-.556-4.334-.435-.917-1.135-1.77-1.816-2.716-.683-.95-1.363-2.035-1.573-3.34-.162-1.008-.016-2.012.243-2.939.26-.924.628-1.778.956-2.6.329-.822.62-1.622.757-2.41.136-.782.112-1.566-.143-2.226a3.086 3.086 0 0 0-1.666-1.698c-.753-.314-2.585-1.222-3.368-.921l-.808-1.738c.826-.318 6.102.77 7.268 3.789.375.973.385 2.018.216 2.988-.167.966-.503 1.861-.842 2.707-.338.846-.68 1.65-.903 2.447-.222.794-.324 1.592-.208 2.318.152.942.687 1.851 1.328 2.741.642.894 1.408 1.806 1.943 2.934.76 1.602.917 3.413.678 5.14-.238 1.723-.854 3.36-1.606 4.89-2.126 4.319-5.363 7.922-8.125 11.672-2.757 3.743-5.138 7.883-5.373 12.23-.19 3.524 1.116 7.073 3.534 9.602 2.419 2.53 5.954 4.044 9.567 4.1 3.613.055 7.31-1.35 10.006-3.801 2.695-2.45 3.987-5.425 4.189-8.95.072-.514-.927-1.794-.583-2.091-.004-.015 1.403.432 1.862 1.406.998 2.116-1.447 7.966-4.453 10.7-3.006 2.733-7.073 4.278-11.102 4.216-4.03-.062-7.92-1.728-10.616-4.548-2.697-2.821-4.133-6.725-3.921-10.655z"
          color="#000" />
    <path fill="#80b3ff"
          stroke="#000"
          stroke-linecap="round"
          stroke-linejoin="round"
          stroke-width=".7"
          d="M36.176 68.481c.887-.284 2.32-.349 3.376.091s1.94 1.21 2.503 2.183c.47.811.68 1.664.91 2.42 1.261 4.17 3.545 7.99 6.044 11.66 2.633 3.87 5.505 7.584 9.052 10.566 2.052 1.724 4.992 6.09 7.527 6.853 2.525.76 4.695-2.122 7.105-3.162 2.094-.903 3.857-2.624 4.78-4.666.922-2.042 1.083-4.798.318-6.84l.802-2.456c1.743 3.362 1.355 7.439.267 9.848-1.088 2.41-3.125 4.398-5.596 5.464-2.83 1.22-5.357 3.884-8.17 3.038-2.803-.843-5.906-5.14-8.051-6.943-3.703-3.112-6.646-6.934-9.311-10.85-2.529-3.715-4.9-7.651-6.228-12.043-.24-.795-.439-1.535-.78-2.125a3.814 3.814 0 0 0-1.815-1.583c-.758-.316-1.597-.294-2.418-.108l-1.453.132c-.066-.587.033-1.139 1.138-1.48z"
          color="#000" />
    <g fill="#80b3ff">
        <path stroke="#000"
              stroke-linecap="round"
              stroke-linejoin="round"
              stroke-width="1.142"
              d="M61.135 145.96a5.054 5.054 0 0 0-3.113.662 1.223 1.223 0 0 0 1.238 2.11 2.666 2.666 0 0 1 1.605-.342c.545.06 1.09.313 1.49.687.4.374.689.902.786 1.442a2.66 2.66 0 0 1-.235 1.623 3.015 3.015 0 0 1-.933 1.074c-.403.29-.89.503-1.408.627-1.042.248-2.23.14-3.405-.18-2.362-.644-4.774-2.213-7.795-2.662-2.767-.411-5.426.277-7.837 1-2.405.72-4.686 1.486-6.91 1.537-3.439.079-6.16-2.107-8.505-3.749.133-.01-1.696 1.725-1.6 1.604 2.862 3.279 5.877 4.689 10.161 4.59 2.728-.062 5.216-.937 7.557-1.638 2.333-.7 4.642-1.241 6.775-.924 2.329.346 4.657 1.823 7.512 2.601 1.434.391 3.025.578 4.613.2a6.43 6.43 0 0 0 2.272-1.022 5.415 5.415 0 0 0 1.69-1.965 5.054 5.054 0 0 0-1.065-5.945 5.056 5.056 0 0 0-2.893-1.33z"
              color="#000"
              transform="matrix(.0498 .60488 -.61951 .02526 167.926 3.664)" />
        <path d="M75.326 22.842c.12-.15.577-.69.624-.736.034-.05.59.535.59.535s-.534.64-.67.806c.003 0-.544-.605-.544-.605z" />
    </g>
    <path d="M67.222 96.823c-3.864.094-6.941 2.425-6.874 5.207.003.108.013.21.025.31l-1.157 2.163 2.035-.76c.412.247.948.385 1.577.453l1.098 2.329.657-2.276c.283-.004.583-.015.882-.027l1.146 2.433.723-2.501.328-.012c.21-.005.415-.008.618-.01l1.004 2.131.621-2.148c.396-.004.784-.012 1.139-.03l1.055 2.24.72-2.49c.985-.292 1.553-.894 1.523-2.146-.068-2.782-3.256-4.961-7.12-4.868z" />
    <path fill="#fc0"
          stroke="#000"
          stroke-linecap="round"
          stroke-linejoin="round"
          stroke-width="1.132"
          d="M26.842 98.313c-9.653 7.137-16.602 17.555-18.049 29.472-.828 6.824-.043 13.802 2.121 20.307 1.24 3.726 3.033 7.532 6.184 10.248 1.58 1.362 3.478 2.41 5.572 2.873 2.101.465 4.364.32 6.377-.592 2.212-1 3.835-2.763 5.152-4.53 1.313-1.759 2.378-3.558 3.657-5.046 1.268-1.476 2.818-2.672 4.503-3.047.837-.186 1.71-.166 2.471.084.753.248 1.43.747 1.83 1.367.315.488.536 1.19.846 2.014 1.196 3.183 3.369 5.988 6.205 7.893 2.838 1.906 6.29 2.868 9.717 2.63 3.511-.243 6.789-1.705 9.55-3.705 2.756-1.994 5.02-4.502 7.061-7.08 4.078-5.15 7.492-10.736 12.535-14.195 3.122-2.141 6.83-3.438 10.641-4.029 3.815-.592 7.751-.5 11.658-.05 7.817.897 15.563 3.228 23.67 4.155 7.919.907 16.046.41 23.732-1.841 7.69-2.253 14.908-6.283 20.621-11.955 1.796-1.783 3.52-3.803 4.62-6.254 1.107-2.47 1.522-5.388.577-8.08-.822-2.343-2.573-4.205-4.638-5.407-2.054-1.194-4.37-1.746-6.643-1.902-4.533-.312-8.822.855-12.941 1.281-2.22.23-4.967.94-7.115 1.149.017.99-.138 1.703-.4 2.243 2.369.171 5.404-.714 7.767-.958 4.382-.453 8.528-1.548 12.521-1.274 1.991.137 3.94.62 5.58 1.575 1.629.947 2.968 2.412 3.56 4.101.683 1.945.402 4.256-.501 6.27-.912 2.032-2.42 3.84-4.112 5.52-5.392 5.353-12.254 9.196-19.584 11.343-7.332 2.148-15.138 2.631-22.768 1.758-7.816-.895-15.562-3.223-23.668-4.154-4.054-.466-8.208-.573-12.312.064-4.107.638-8.162 2.037-11.648 4.428-5.618 3.853-9.123 9.71-13.07 14.695-1.971 2.49-4.097 4.821-6.578 6.617-2.474 1.791-5.346 3.04-8.283 3.244-2.855.198-5.797-.614-8.185-2.219-2.391-1.605-4.261-4.012-5.28-6.722-.265-.707-.508-1.598-1.08-2.483-.741-1.149-1.872-1.95-3.119-2.36-1.24-.409-2.548-.422-3.767-.151-2.427.539-4.354 2.12-5.83 3.84-1.467 1.707-2.554 3.562-3.76 5.18-1.202 1.61-2.576 3.027-4.202 3.763-1.467.664-3.21.792-4.837.432-1.636-.363-3.191-1.206-4.504-2.338-2.636-2.272-4.287-5.644-5.46-9.166-2.054-6.175-2.797-12.8-2.015-19.24 1.363-11.225 6.95-22.543 16.043-29.265z"
          color="#000"
          transform="matrix(.59004 .14218 -.17006 .59625 25.141 9.365)" />
</svg>